<svg width="612" height="3" viewBox="0 0 612 3" fill="none" xmlns="http://www.w3.org/2000/svg">
<path d="M16.8711 0.722656C17.1523 0.722656 17.3906 0.785156 17.5859 0.910156C17.7891 1.03516 17.8906 1.25391 17.8906 1.56641C17.8906 1.75391 17.8633 1.89844 17.8086 2C17.7617 2.10938 17.6953 2.19141 17.6094 2.24609C17.5234 2.30859 17.418 2.34766 17.293 2.36328C17.168 2.37891 17.0312 2.38672 16.8828 2.38672H1.80078C1.57422 2.38672 1.40234 2.35938 1.28516 2.30469C1.16016 2.25781 1.07031 2.19531 1.01562 2.11719C0.953125 2.03906 0.917969 1.95703 0.910156 1.87109C0.902344 1.78516 0.898438 1.70703 0.898438 1.63672C0.898438 1.53516 0.925781 1.42969 0.980469 1.32031C1.03516 1.21875 1.10938 1.12109 1.20312 1.02734C1.28906 0.941406 1.39453 0.867188 1.51953 0.804688C1.63672 0.75 1.76172 0.722656 1.89453 0.722656H16.8711ZM32.082 0.722656C32.3633 0.722656 32.6016 0.785156 32.7969 0.910156C33 1.03516 33.1016 1.25391 33.1016 1.56641C33.1016 1.75391 33.0742 1.89844 33.0195 2C32.9727 2.10938 32.9062 2.19141 32.8203 2.24609C32.7344 2.30859 32.6289 2.34766 32.5039 2.36328C32.3789 2.37891 32.2422 2.38672 32.0938 2.38672H17.0117C16.7852 2.38672 16.6133 2.35938 16.4961 2.30469C16.3711 2.25781 16.2812 2.19531 16.2266 2.11719C16.1641 2.03906 16.1289 1.95703 16.1211 1.87109C16.1133 1.78516 16.1094 1.70703 16.1094 1.63672C16.1094 1.53516 16.1367 1.42969 16.1914 1.32031C16.2461 1.21875 16.3203 1.12109 16.4141 1.02734C16.5 0.941406 16.6055 0.867188 16.7305 0.804688C16.8477 0.75 16.9727 0.722656 17.1055 0.722656H32.082ZM47.293 0.722656C47.5742 0.722656 47.8125 0.785156 48.0078 0.910156C48.2109 1.03516 48.3125 1.25391 48.3125 1.56641C48.3125 1.75391 48.2852 1.89844 48.2305 2C48.1836 2.10938 48.1172 2.19141 48.0312 2.24609C47.9453 2.30859 47.8398 2.34766 47.7148 2.36328C47.5898 2.37891 47.4531 2.38672 47.3047 2.38672H32.2227C31.9961 2.38672 31.8242 2.35938 31.707 2.30469C31.582 2.25781 31.4922 2.19531 31.4375 2.11719C31.375 2.03906 31.3398 1.95703 31.332 1.87109C31.3242 1.78516 31.3203 1.70703 31.3203 1.63672C31.3203 1.53516 31.3477 1.42969 31.4023 1.32031C31.457 1.21875 31.5312 1.12109 31.625 1.02734C31.7109 0.941406 31.8164 0.867188 31.9414 0.804688C32.0586 0.75 32.1836 0.722656 32.3164 0.722656H47.293ZM62.5039 0.722656C62.7852 0.722656 63.0234 0.785156 63.2188 0.910156C63.4219 1.03516 63.5234 1.25391 63.5234 1.56641C63.5234 1.75391 63.4961 1.89844 63.4414 2C63.3945 2.10938 63.3281 2.19141 63.2422 2.24609C63.1562 2.30859 63.0508 2.34766 62.9258 2.36328C62.8008 2.37891 62.6641 2.38672 62.5156 2.38672H47.4336C47.207 2.38672 47.0352 2.35938 46.918 2.30469C46.793 2.25781 46.7031 2.19531 46.6484 2.11719C46.5859 2.03906 46.5508 1.95703 46.543 1.87109C46.5352 1.78516 46.5312 1.70703 46.5312 1.63672C46.5312 1.53516 46.5586 1.42969 46.6133 1.32031C46.668 1.21875 46.7422 1.12109 46.8359 1.02734C46.9219 0.941406 47.0273 0.867188 47.1523 0.804688C47.2695 0.75 47.3945 0.722656 47.5273 0.722656H62.5039ZM77.7148 0.722656C77.9961 0.722656 78.2344 0.785156 78.4297 0.910156C78.6328 1.03516 78.7344 1.25391 78.7344 1.56641C78.7344 1.75391 78.707 1.89844 78.6523 2C78.6055 2.10938 78.5391 2.19141 78.4531 2.24609C78.3672 2.30859 78.2617 2.34766 78.1367 2.36328C78.0117 2.37891 77.875 2.38672 77.7266 2.38672H62.6445C62.418 2.38672 62.2461 2.35938 62.1289 2.30469C62.0039 2.25781 61.9141 2.19531 61.8594 2.11719C61.7969 2.03906 61.7617 1.95703 61.7539 1.87109C61.7461 1.78516 61.7422 1.70703 61.7422 1.63672C61.7422 1.53516 61.7695 1.42969 61.8242 1.32031C61.8789 1.21875 61.9531 1.12109 62.0469 1.02734C62.1328 0.941406 62.2383 0.867188 62.3633 0.804688C62.4805 0.75 62.6055 0.722656 62.7383 0.722656H77.7148ZM92.9258 0.722656C93.207 0.722656 93.4453 0.785156 93.6406 0.910156C93.8438 1.03516 93.9453 1.25391 93.9453 1.56641C93.9453 1.75391 93.918 1.89844 93.8633 2C93.8164 2.10938 93.75 2.19141 93.6641 2.24609C93.5781 2.30859 93.4727 2.34766 93.3477 2.36328C93.2227 2.37891 93.0859 2.38672 92.9375 2.38672H77.8555C77.6289 2.38672 77.457 2.35938 77.3398 2.30469C77.2148 2.25781 77.125 2.19531 77.0703 2.11719C77.0078 2.03906 76.9727 1.95703 76.9648 1.87109C76.957 1.78516 76.9531 1.70703 76.9531 1.63672C76.9531 1.53516 76.9805 1.42969 77.0352 1.32031C77.0898 1.21875 77.1641 1.12109 77.2578 1.02734C77.3438 0.941406 77.4492 0.867188 77.5742 0.804688C77.6914 0.75 77.8164 0.722656 77.9492 0.722656H92.9258ZM108.137 0.722656C108.418 0.722656 108.656 0.785156 108.852 0.910156C109.055 1.03516 109.156 1.25391 109.156 1.56641C109.156 1.75391 109.129 1.89844 109.074 2C109.027 2.10938 108.961 2.19141 108.875 2.24609C108.789 2.30859 108.684 2.34766 108.559 2.36328C108.434 2.37891 108.297 2.38672 108.148 2.38672H93.0664C92.8398 2.38672 92.668 2.35938 92.5508 2.30469C92.4258 2.25781 92.3359 2.19531 92.2812 2.11719C92.2188 2.03906 92.1836 1.95703 92.1758 1.87109C92.168 1.78516 92.1641 1.70703 92.1641 1.63672C92.1641 1.53516 92.1914 1.42969 92.2461 1.32031C92.3008 1.21875 92.375 1.12109 92.4688 1.02734C92.5547 0.941406 92.6602 0.867188 92.7852 0.804688C92.9023 0.75 93.0273 0.722656 93.1602 0.722656H108.137ZM123.348 0.722656C123.629 0.722656 123.867 0.785156 124.062 0.910156C124.266 1.03516 124.367 1.25391 124.367 1.56641C124.367 1.75391 124.34 1.89844 124.285 2C124.238 2.10938 124.172 2.19141 124.086 2.24609C124 2.30859 123.895 2.34766 123.77 2.36328C123.645 2.37891 123.508 2.38672 123.359 2.38672H108.277C108.051 2.38672 107.879 2.35938 107.762 2.30469C107.637 2.25781 107.547 2.19531 107.492 2.11719C107.43 2.03906 107.395 1.95703 107.387 1.87109C107.379 1.78516 107.375 1.70703 107.375 1.63672C107.375 1.53516 107.402 1.42969 107.457 1.32031C107.512 1.21875 107.586 1.12109 107.68 1.02734C107.766 0.941406 107.871 0.867188 107.996 0.804688C108.113 0.75 108.238 0.722656 108.371 0.722656H123.348ZM138.559 0.722656C138.84 0.722656 139.078 0.785156 139.273 0.910156C139.477 1.03516 139.578 1.25391 139.578 1.56641C139.578 1.75391 139.551 1.89844 139.496 2C139.449 2.10938 139.383 2.19141 139.297 2.24609C139.211 2.30859 139.105 2.34766 138.98 2.36328C138.855 2.37891 138.719 2.38672 138.57 2.38672H123.488C123.262 2.38672 123.09 2.35938 122.973 2.30469C122.848 2.25781 122.758 2.19531 122.703 2.11719C122.641 2.03906 122.605 1.95703 122.598 1.87109C122.59 1.78516 122.586 1.70703 122.586 1.63672C122.586 1.53516 122.613 1.42969 122.668 1.32031C122.723 1.21875 122.797 1.12109 122.891 1.02734C122.977 0.941406 123.082 0.867188 123.207 0.804688C123.324 0.75 123.449 0.722656 123.582 0.722656H138.559ZM153.77 0.722656C154.051 0.722656 154.289 0.785156 154.484 0.910156C154.688 1.03516 154.789 1.25391 154.789 1.56641C154.789 1.75391 154.762 1.89844 154.707 2C154.66 2.10938 154.594 2.19141 154.508 2.24609C154.422 2.30859 154.316 2.34766 154.191 2.36328C154.066 2.37891 153.93 2.38672 153.781 2.38672H138.699C138.473 2.38672 138.301 2.35938 138.184 2.30469C138.059 2.25781 137.969 2.19531 137.914 2.11719C137.852 2.03906 137.816 1.95703 137.809 1.87109C137.801 1.78516 137.797 1.70703 137.797 1.63672C137.797 1.53516 137.824 1.42969 137.879 1.32031C137.934 1.21875 138.008 1.12109 138.102 1.02734C138.188 0.941406 138.293 0.867188 138.418 0.804688C138.535 0.75 138.66 0.722656 138.793 0.722656H153.77ZM168.98 0.722656C169.262 0.722656 169.5 0.785156 169.695 0.910156C169.898 1.03516 170 1.25391 170 1.56641C170 1.75391 169.973 1.89844 169.918 2C169.871 2.10938 169.805 2.19141 169.719 2.24609C169.633 2.30859 169.527 2.34766 169.402 2.36328C169.277 2.37891 169.141 2.38672 168.992 2.38672H153.91C153.684 2.38672 153.512 2.35938 153.395 2.30469C153.27 2.25781 153.18 2.19531 153.125 2.11719C153.062 2.03906 153.027 1.95703 153.02 1.87109C153.012 1.78516 153.008 1.70703 153.008 1.63672C153.008 1.53516 153.035 1.42969 153.09 1.32031C153.145 1.21875 153.219 1.12109 153.312 1.02734C153.398 0.941406 153.504 0.867188 153.629 0.804688C153.746 0.75 153.871 0.722656 154.004 0.722656H168.98ZM184.191 0.722656C184.473 0.722656 184.711 0.785156 184.906 0.910156C185.109 1.03516 185.211 1.25391 185.211 1.56641C185.211 1.75391 185.184 1.89844 185.129 2C185.082 2.10938 185.016 2.19141 184.93 2.24609C184.844 2.30859 184.738 2.34766 184.613 2.36328C184.488 2.37891 184.352 2.38672 184.203 2.38672H169.121C168.895 2.38672 168.723 2.35938 168.605 2.30469C168.48 2.25781 168.391 2.19531 168.336 2.11719C168.273 2.03906 168.238 1.95703 168.23 1.87109C168.223 1.78516 168.219 1.70703 168.219 1.63672C168.219 1.53516 168.246 1.42969 168.301 1.32031C168.355 1.21875 168.43 1.12109 168.523 1.02734C168.609 0.941406 168.715 0.867188 168.84 0.804688C168.957 0.75 169.082 0.722656 169.215 0.722656H184.191ZM199.402 0.722656C199.684 0.722656 199.922 0.785156 200.117 0.910156C200.32 1.03516 200.422 1.25391 200.422 1.56641C200.422 1.75391 200.395 1.89844 200.34 2C200.293 2.10938 200.227 2.19141 200.141 2.24609C200.055 2.30859 199.949 2.34766 199.824 2.36328C199.699 2.37891 199.562 2.38672 199.414 2.38672H184.332C184.105 2.38672 183.934 2.35938 183.816 2.30469C183.691 2.25781 183.602 2.19531 183.547 2.11719C183.484 2.03906 183.449 1.95703 183.441 1.87109C183.434 1.78516 183.43 1.70703 183.43 1.63672C183.43 1.53516 183.457 1.42969 183.512 1.32031C183.566 1.21875 183.641 1.12109 183.734 1.02734C183.82 0.941406 183.926 0.867188 184.051 0.804688C184.168 0.75 184.293 0.722656 184.426 0.722656H199.402ZM214.613 0.722656C214.895 0.722656 215.133 0.785156 215.328 0.910156C215.531 1.03516 215.633 1.25391 215.633 1.56641C215.633 1.75391 215.605 1.89844 215.551 2C215.504 2.10938 215.438 2.19141 215.352 2.24609C215.266 2.30859 215.16 2.34766 215.035 2.36328C214.91 2.37891 214.773 2.38672 214.625 2.38672H199.543C199.316 2.38672 199.145 2.35938 199.027 2.30469C198.902 2.25781 198.812 2.19531 198.758 2.11719C198.695 2.03906 198.66 1.95703 198.652 1.87109C198.645 1.78516 198.641 1.70703 198.641 1.63672C198.641 1.53516 198.668 1.42969 198.723 1.32031C198.777 1.21875 198.852 1.12109 198.945 1.02734C199.031 0.941406 199.137 0.867188 199.262 0.804688C199.379 0.75 199.504 0.722656 199.637 0.722656H214.613ZM229.824 0.722656C230.105 0.722656 230.344 0.785156 230.539 0.910156C230.742 1.03516 230.844 1.25391 230.844 1.56641C230.844 1.75391 230.816 1.89844 230.762 2C230.715 2.10938 230.648 2.19141 230.562 2.24609C230.477 2.30859 230.371 2.34766 230.246 2.36328C230.121 2.37891 229.984 2.38672 229.836 2.38672H214.754C214.527 2.38672 214.355 2.35938 214.238 2.30469C214.113 2.25781 214.023 2.19531 213.969 2.11719C213.906 2.03906 213.871 1.95703 213.863 1.87109C213.855 1.78516 213.852 1.70703 213.852 1.63672C213.852 1.53516 213.879 1.42969 213.934 1.32031C213.988 1.21875 214.062 1.12109 214.156 1.02734C214.242 0.941406 214.348 0.867188 214.473 0.804688C214.59 0.75 214.715 0.722656 214.848 0.722656H229.824ZM245.035 0.722656C245.316 0.722656 245.555 0.785156 245.75 0.910156C245.953 1.03516 246.055 1.25391 246.055 1.56641C246.055 1.75391 246.027 1.89844 245.973 2C245.926 2.10938 245.859 2.19141 245.773 2.24609C245.688 2.30859 245.582 2.34766 245.457 2.36328C245.332 2.37891 245.195 2.38672 245.047 2.38672H229.965C229.738 2.38672 229.566 2.35938 229.449 2.30469C229.324 2.25781 229.234 2.19531 229.18 2.11719C229.117 2.03906 229.082 1.95703 229.074 1.87109C229.066 1.78516 229.062 1.70703 229.062 1.63672C229.062 1.53516 229.09 1.42969 229.145 1.32031C229.199 1.21875 229.273 1.12109 229.367 1.02734C229.453 0.941406 229.559 0.867188 229.684 0.804688C229.801 0.75 229.926 0.722656 230.059 0.722656H245.035ZM260.246 0.722656C260.527 0.722656 260.766 0.785156 260.961 0.910156C261.164 1.03516 261.266 1.25391 261.266 1.56641C261.266 1.75391 261.238 1.89844 261.184 2C261.137 2.10938 261.07 2.19141 260.984 2.24609C260.898 2.30859 260.793 2.34766 260.668 2.36328C260.543 2.37891 260.406 2.38672 260.258 2.38672H245.176C244.949 2.38672 244.777 2.35938 244.66 2.30469C244.535 2.25781 244.445 2.19531 244.391 2.11719C244.328 2.03906 244.293 1.95703 244.285 1.87109C244.277 1.78516 244.273 1.70703 244.273 1.63672C244.273 1.53516 244.301 1.42969 244.355 1.32031C244.41 1.21875 244.484 1.12109 244.578 1.02734C244.664 0.941406 244.77 0.867188 244.895 0.804688C245.012 0.75 245.137 0.722656 245.27 0.722656H260.246ZM275.457 0.722656C275.738 0.722656 275.977 0.785156 276.172 0.910156C276.375 1.03516 276.477 1.25391 276.477 1.56641C276.477 1.75391 276.449 1.89844 276.395 2C276.348 2.10938 276.281 2.19141 276.195 2.24609C276.109 2.30859 276.004 2.34766 275.879 2.36328C275.754 2.37891 275.617 2.38672 275.469 2.38672H260.387C260.16 2.38672 259.988 2.35938 259.871 2.30469C259.746 2.25781 259.656 2.19531 259.602 2.11719C259.539 2.03906 259.504 1.95703 259.496 1.87109C259.488 1.78516 259.484 1.70703 259.484 1.63672C259.484 1.53516 259.512 1.42969 259.566 1.32031C259.621 1.21875 259.695 1.12109 259.789 1.02734C259.875 0.941406 259.98 0.867188 260.105 0.804688C260.223 0.75 260.348 0.722656 260.48 0.722656H275.457ZM290.668 0.722656C290.949 0.722656 291.188 0.785156 291.383 0.910156C291.586 1.03516 291.688 1.25391 291.688 1.56641C291.688 1.75391 291.66 1.89844 291.605 2C291.559 2.10938 291.492 2.19141 291.406 2.24609C291.32 2.30859 291.215 2.34766 291.09 2.36328C290.965 2.37891 290.828 2.38672 290.68 2.38672H275.598C275.371 2.38672 275.199 2.35938 275.082 2.30469C274.957 2.25781 274.867 2.19531 274.812 2.11719C274.75 2.03906 274.715 1.95703 274.707 1.87109C274.699 1.78516 274.695 1.70703 274.695 1.63672C274.695 1.53516 274.723 1.42969 274.777 1.32031C274.832 1.21875 274.906 1.12109 275 1.02734C275.086 0.941406 275.191 0.867188 275.316 0.804688C275.434 0.75 275.559 0.722656 275.691 0.722656H290.668ZM305.879 0.722656C306.16 0.722656 306.398 0.785156 306.594 0.910156C306.797 1.03516 306.898 1.25391 306.898 1.56641C306.898 1.75391 306.871 1.89844 306.816 2C306.77 2.10938 306.703 2.19141 306.617 2.24609C306.531 2.30859 306.426 2.34766 306.301 2.36328C306.176 2.37891 306.039 2.38672 305.891 2.38672H290.809C290.582 2.38672 290.41 2.35938 290.293 2.30469C290.168 2.25781 290.078 2.19531 290.023 2.11719C289.961 2.03906 289.926 1.95703 289.918 1.87109C289.91 1.78516 289.906 1.70703 289.906 1.63672C289.906 1.53516 289.934 1.42969 289.988 1.32031C290.043 1.21875 290.117 1.12109 290.211 1.02734C290.297 0.941406 290.402 0.867188 290.527 0.804688C290.645 0.75 290.77 0.722656 290.902 0.722656H305.879ZM321.09 0.722656C321.371 0.722656 321.609 0.785156 321.805 0.910156C322.008 1.03516 322.109 1.25391 322.109 1.56641C322.109 1.75391 322.082 1.89844 322.027 2C321.98 2.10938 321.914 2.19141 321.828 2.24609C321.742 2.30859 321.637 2.34766 321.512 2.36328C321.387 2.37891 321.25 2.38672 321.102 2.38672H306.02C305.793 2.38672 305.621 2.35938 305.504 2.30469C305.379 2.25781 305.289 2.19531 305.234 2.11719C305.172 2.03906 305.137 1.95703 305.129 1.87109C305.121 1.78516 305.117 1.70703 305.117 1.63672C305.117 1.53516 305.145 1.42969 305.199 1.32031C305.254 1.21875 305.328 1.12109 305.422 1.02734C305.508 0.941406 305.613 0.867188 305.738 0.804688C305.855 0.75 305.98 0.722656 306.113 0.722656H321.09ZM336.301 0.722656C336.582 0.722656 336.82 0.785156 337.016 0.910156C337.219 1.03516 337.32 1.25391 337.32 1.56641C337.32 1.75391 337.293 1.89844 337.238 2C337.191 2.10938 337.125 2.19141 337.039 2.24609C336.953 2.30859 336.848 2.34766 336.723 2.36328C336.598 2.37891 336.461 2.38672 336.312 2.38672H321.23C321.004 2.38672 320.832 2.35938 320.715 2.30469C320.59 2.25781 320.5 2.19531 320.445 2.11719C320.383 2.03906 320.348 1.95703 320.34 1.87109C320.332 1.78516 320.328 1.70703 320.328 1.63672C320.328 1.53516 320.355 1.42969 320.41 1.32031C320.465 1.21875 320.539 1.12109 320.633 1.02734C320.719 0.941406 320.824 0.867188 320.949 0.804688C321.066 0.75 321.191 0.722656 321.324 0.722656H336.301ZM351.512 0.722656C351.793 0.722656 352.031 0.785156 352.227 0.910156C352.43 1.03516 352.531 1.25391 352.531 1.56641C352.531 1.75391 352.504 1.89844 352.449 2C352.402 2.10938 352.336 2.19141 352.25 2.24609C352.164 2.30859 352.059 2.34766 351.934 2.36328C351.809 2.37891 351.672 2.38672 351.523 2.38672H336.441C336.215 2.38672 336.043 2.35938 335.926 2.30469C335.801 2.25781 335.711 2.19531 335.656 2.11719C335.594 2.03906 335.559 1.95703 335.551 1.87109C335.543 1.78516 335.539 1.70703 335.539 1.63672C335.539 1.53516 335.566 1.42969 335.621 1.32031C335.676 1.21875 335.75 1.12109 335.844 1.02734C335.93 0.941406 336.035 0.867188 336.16 0.804688C336.277 0.75 336.402 0.722656 336.535 0.722656H351.512ZM366.723 0.722656C367.004 0.722656 367.242 0.785156 367.438 0.910156C367.641 1.03516 367.742 1.25391 367.742 1.56641C367.742 1.75391 367.715 1.89844 367.66 2C367.613 2.10938 367.547 2.19141 367.461 2.24609C367.375 2.30859 367.27 2.34766 367.145 2.36328C367.02 2.37891 366.883 2.38672 366.734 2.38672H351.652C351.426 2.38672 351.254 2.35938 351.137 2.30469C351.012 2.25781 350.922 2.19531 350.867 2.11719C350.805 2.03906 350.77 1.95703 350.762 1.87109C350.754 1.78516 350.75 1.70703 350.75 1.63672C350.75 1.53516 350.777 1.42969 350.832 1.32031C350.887 1.21875 350.961 1.12109 351.055 1.02734C351.141 0.941406 351.246 0.867188 351.371 0.804688C351.488 0.75 351.613 0.722656 351.746 0.722656H366.723ZM381.934 0.722656C382.215 0.722656 382.453 0.785156 382.648 0.910156C382.852 1.03516 382.953 1.25391 382.953 1.56641C382.953 1.75391 382.926 1.89844 382.871 2C382.824 2.10938 382.758 2.19141 382.672 2.24609C382.586 2.30859 382.48 2.34766 382.355 2.36328C382.23 2.37891 382.094 2.38672 381.945 2.38672H366.863C366.637 2.38672 366.465 2.35938 366.348 2.30469C366.223 2.25781 366.133 2.19531 366.078 2.11719C366.016 2.03906 365.98 1.95703 365.973 1.87109C365.965 1.78516 365.961 1.70703 365.961 1.63672C365.961 1.53516 365.988 1.42969 366.043 1.32031C366.098 1.21875 366.172 1.12109 366.266 1.02734C366.352 0.941406 366.457 0.867188 366.582 0.804688C366.699 0.75 366.824 0.722656 366.957 0.722656H381.934ZM397.145 0.722656C397.426 0.722656 397.664 0.785156 397.859 0.910156C398.062 1.03516 398.164 1.25391 398.164 1.56641C398.164 1.75391 398.137 1.89844 398.082 2C398.035 2.10938 397.969 2.19141 397.883 2.24609C397.797 2.30859 397.691 2.34766 397.566 2.36328C397.441 2.37891 397.305 2.38672 397.156 2.38672H382.074C381.848 2.38672 381.676 2.35938 381.559 2.30469C381.434 2.25781 381.344 2.19531 381.289 2.11719C381.227 2.03906 381.191 1.95703 381.184 1.87109C381.176 1.78516 381.172 1.70703 381.172 1.63672C381.172 1.53516 381.199 1.42969 381.254 1.32031C381.309 1.21875 381.383 1.12109 381.477 1.02734C381.562 0.941406 381.668 0.867188 381.793 0.804688C381.91 0.75 382.035 0.722656 382.168 0.722656H397.145ZM412.355 0.722656C412.637 0.722656 412.875 0.785156 413.07 0.910156C413.273 1.03516 413.375 1.25391 413.375 1.56641C413.375 1.75391 413.348 1.89844 413.293 2C413.246 2.10938 413.18 2.19141 413.094 2.24609C413.008 2.30859 412.902 2.34766 412.777 2.36328C412.652 2.37891 412.516 2.38672 412.367 2.38672H397.285C397.059 2.38672 396.887 2.35938 396.77 2.30469C396.645 2.25781 396.555 2.19531 396.5 2.11719C396.438 2.03906 396.402 1.95703 396.395 1.87109C396.387 1.78516 396.383 1.70703 396.383 1.63672C396.383 1.53516 396.41 1.42969 396.465 1.32031C396.52 1.21875 396.594 1.12109 396.688 1.02734C396.773 0.941406 396.879 0.867188 397.004 0.804688C397.121 0.75 397.246 0.722656 397.379 0.722656H412.355ZM427.566 0.722656C427.848 0.722656 428.086 0.785156 428.281 0.910156C428.484 1.03516 428.586 1.25391 428.586 1.56641C428.586 1.75391 428.559 1.89844 428.504 2C428.457 2.10938 428.391 2.19141 428.305 2.24609C428.219 2.30859 428.113 2.34766 427.988 2.36328C427.863 2.37891 427.727 2.38672 427.578 2.38672H412.496C412.27 2.38672 412.098 2.35938 411.98 2.30469C411.855 2.25781 411.766 2.19531 411.711 2.11719C411.648 2.03906 411.613 1.95703 411.605 1.87109C411.598 1.78516 411.594 1.70703 411.594 1.63672C411.594 1.53516 411.621 1.42969 411.676 1.32031C411.73 1.21875 411.805 1.12109 411.898 1.02734C411.984 0.941406 412.09 0.867188 412.215 0.804688C412.332 0.75 412.457 0.722656 412.59 0.722656H427.566ZM442.777 0.722656C443.059 0.722656 443.297 0.785156 443.492 0.910156C443.695 1.03516 443.797 1.25391 443.797 1.56641C443.797 1.75391 443.77 1.89844 443.715 2C443.668 2.10938 443.602 2.19141 443.516 2.24609C443.43 2.30859 443.324 2.34766 443.199 2.36328C443.074 2.37891 442.938 2.38672 442.789 2.38672H427.707C427.48 2.38672 427.309 2.35938 427.191 2.30469C427.066 2.25781 426.977 2.19531 426.922 2.11719C426.859 2.03906 426.824 1.95703 426.816 1.87109C426.809 1.78516 426.805 1.70703 426.805 1.63672C426.805 1.53516 426.832 1.42969 426.887 1.32031C426.941 1.21875 427.016 1.12109 427.109 1.02734C427.195 0.941406 427.301 0.867188 427.426 0.804688C427.543 0.75 427.668 0.722656 427.801 0.722656H442.777ZM457.988 0.722656C458.27 0.722656 458.508 0.785156 458.703 0.910156C458.906 1.03516 459.008 1.25391 459.008 1.56641C459.008 1.75391 458.98 1.89844 458.926 2C458.879 2.10938 458.812 2.19141 458.727 2.24609C458.641 2.30859 458.535 2.34766 458.41 2.36328C458.285 2.37891 458.148 2.38672 458 2.38672H442.918C442.691 2.38672 442.52 2.35938 442.402 2.30469C442.277 2.25781 442.188 2.19531 442.133 2.11719C442.07 2.03906 442.035 1.95703 442.027 1.87109C442.02 1.78516 442.016 1.70703 442.016 1.63672C442.016 1.53516 442.043 1.42969 442.098 1.32031C442.152 1.21875 442.227 1.12109 442.32 1.02734C442.406 0.941406 442.512 0.867188 442.637 0.804688C442.754 0.75 442.879 0.722656 443.012 0.722656H457.988ZM473.199 0.722656C473.48 0.722656 473.719 0.785156 473.914 0.910156C474.117 1.03516 474.219 1.25391 474.219 1.56641C474.219 1.75391 474.191 1.89844 474.137 2C474.09 2.10938 474.023 2.19141 473.938 2.24609C473.852 2.30859 473.746 2.34766 473.621 2.36328C473.496 2.37891 473.359 2.38672 473.211 2.38672H458.129C457.902 2.38672 457.73 2.35938 457.613 2.30469C457.488 2.25781 457.398 2.19531 457.344 2.11719C457.281 2.03906 457.246 1.95703 457.238 1.87109C457.23 1.78516 457.227 1.70703 457.227 1.63672C457.227 1.53516 457.254 1.42969 457.309 1.32031C457.363 1.21875 457.438 1.12109 457.531 1.02734C457.617 0.941406 457.723 0.867188 457.848 0.804688C457.965 0.75 458.09 0.722656 458.223 0.722656H473.199ZM488.41 0.722656C488.691 0.722656 488.93 0.785156 489.125 0.910156C489.328 1.03516 489.43 1.25391 489.43 1.56641C489.43 1.75391 489.402 1.89844 489.348 2C489.301 2.10938 489.234 2.19141 489.148 2.24609C489.062 2.30859 488.957 2.34766 488.832 2.36328C488.707 2.37891 488.57 2.38672 488.422 2.38672H473.34C473.113 2.38672 472.941 2.35938 472.824 2.30469C472.699 2.25781 472.609 2.19531 472.555 2.11719C472.492 2.03906 472.457 1.95703 472.449 1.87109C472.441 1.78516 472.438 1.70703 472.438 1.63672C472.438 1.53516 472.465 1.42969 472.52 1.32031C472.574 1.21875 472.648 1.12109 472.742 1.02734C472.828 0.941406 472.934 0.867188 473.059 0.804688C473.176 0.75 473.301 0.722656 473.434 0.722656H488.41ZM503.621 0.722656C503.902 0.722656 504.141 0.785156 504.336 0.910156C504.539 1.03516 504.641 1.25391 504.641 1.56641C504.641 1.75391 504.613 1.89844 504.559 2C504.512 2.10938 504.445 2.19141 504.359 2.24609C504.273 2.30859 504.168 2.34766 504.043 2.36328C503.918 2.37891 503.781 2.38672 503.633 2.38672H488.551C488.324 2.38672 488.152 2.35938 488.035 2.30469C487.91 2.25781 487.82 2.19531 487.766 2.11719C487.703 2.03906 487.668 1.95703 487.66 1.87109C487.652 1.78516 487.648 1.70703 487.648 1.63672C487.648 1.53516 487.676 1.42969 487.73 1.32031C487.785 1.21875 487.859 1.12109 487.953 1.02734C488.039 0.941406 488.145 0.867188 488.27 0.804688C488.387 0.75 488.512 0.722656 488.645 0.722656H503.621ZM518.832 0.722656C519.113 0.722656 519.352 0.785156 519.547 0.910156C519.75 1.03516 519.852 1.25391 519.852 1.56641C519.852 1.75391 519.824 1.89844 519.77 2C519.723 2.10938 519.656 2.19141 519.57 2.24609C519.484 2.30859 519.379 2.34766 519.254 2.36328C519.129 2.37891 518.992 2.38672 518.844 2.38672H503.762C503.535 2.38672 503.363 2.35938 503.246 2.30469C503.121 2.25781 503.031 2.19531 502.977 2.11719C502.914 2.03906 502.879 1.95703 502.871 1.87109C502.863 1.78516 502.859 1.70703 502.859 1.63672C502.859 1.53516 502.887 1.42969 502.941 1.32031C502.996 1.21875 503.07 1.12109 503.164 1.02734C503.25 0.941406 503.355 0.867188 503.48 0.804688C503.598 0.75 503.723 0.722656 503.855 0.722656H518.832ZM534.043 0.722656C534.324 0.722656 534.562 0.785156 534.758 0.910156C534.961 1.03516 535.062 1.25391 535.062 1.56641C535.062 1.75391 535.035 1.89844 534.98 2C534.934 2.10938 534.867 2.19141 534.781 2.24609C534.695 2.30859 534.59 2.34766 534.465 2.36328C534.34 2.37891 534.203 2.38672 534.055 2.38672H518.973C518.746 2.38672 518.574 2.35938 518.457 2.30469C518.332 2.25781 518.242 2.19531 518.188 2.11719C518.125 2.03906 518.09 1.95703 518.082 1.87109C518.074 1.78516 518.07 1.70703 518.07 1.63672C518.07 1.53516 518.098 1.42969 518.152 1.32031C518.207 1.21875 518.281 1.12109 518.375 1.02734C518.461 0.941406 518.566 0.867188 518.691 0.804688C518.809 0.75 518.934 0.722656 519.066 0.722656H534.043ZM549.254 0.722656C549.535 0.722656 549.773 0.785156 549.969 0.910156C550.172 1.03516 550.273 1.25391 550.273 1.56641C550.273 1.75391 550.246 1.89844 550.191 2C550.145 2.10938 550.078 2.19141 549.992 2.24609C549.906 2.30859 549.801 2.34766 549.676 2.36328C549.551 2.37891 549.414 2.38672 549.266 2.38672H534.184C533.957 2.38672 533.785 2.35938 533.668 2.30469C533.543 2.25781 533.453 2.19531 533.398 2.11719C533.336 2.03906 533.301 1.95703 533.293 1.87109C533.285 1.78516 533.281 1.70703 533.281 1.63672C533.281 1.53516 533.309 1.42969 533.363 1.32031C533.418 1.21875 533.492 1.12109 533.586 1.02734C533.672 0.941406 533.777 0.867188 533.902 0.804688C534.02 0.75 534.145 0.722656 534.277 0.722656H549.254ZM564.465 0.722656C564.746 0.722656 564.984 0.785156 565.18 0.910156C565.383 1.03516 565.484 1.25391 565.484 1.56641C565.484 1.75391 565.457 1.89844 565.402 2C565.355 2.10938 565.289 2.19141 565.203 2.24609C565.117 2.30859 565.012 2.34766 564.887 2.36328C564.762 2.37891 564.625 2.38672 564.477 2.38672H549.395C549.168 2.38672 548.996 2.35938 548.879 2.30469C548.754 2.25781 548.664 2.19531 548.609 2.11719C548.547 2.03906 548.512 1.95703 548.504 1.87109C548.496 1.78516 548.492 1.70703 548.492 1.63672C548.492 1.53516 548.52 1.42969 548.574 1.32031C548.629 1.21875 548.703 1.12109 548.797 1.02734C548.883 0.941406 548.988 0.867188 549.113 0.804688C549.23 0.75 549.355 0.722656 549.488 0.722656H564.465ZM579.676 0.722656C579.957 0.722656 580.195 0.785156 580.391 0.910156C580.594 1.03516 580.695 1.25391 580.695 1.56641C580.695 1.75391 580.668 1.89844 580.613 2C580.566 2.10938 580.5 2.19141 580.414 2.24609C580.328 2.30859 580.223 2.34766 580.098 2.36328C579.973 2.37891 579.836 2.38672 579.688 2.38672H564.605C564.379 2.38672 564.207 2.35938 564.09 2.30469C563.965 2.25781 563.875 2.19531 563.82 2.11719C563.758 2.03906 563.723 1.95703 563.715 1.87109C563.707 1.78516 563.703 1.70703 563.703 1.63672C563.703 1.53516 563.73 1.42969 563.785 1.32031C563.84 1.21875 563.914 1.12109 564.008 1.02734C564.094 0.941406 564.199 0.867188 564.324 0.804688C564.441 0.75 564.566 0.722656 564.699 0.722656H579.676ZM594.887 0.722656C595.168 0.722656 595.406 0.785156 595.602 0.910156C595.805 1.03516 595.906 1.25391 595.906 1.56641C595.906 1.75391 595.879 1.89844 595.824 2C595.777 2.10938 595.711 2.19141 595.625 2.24609C595.539 2.30859 595.434 2.34766 595.309 2.36328C595.184 2.37891 595.047 2.38672 594.898 2.38672H579.816C579.59 2.38672 579.418 2.35938 579.301 2.30469C579.176 2.25781 579.086 2.19531 579.031 2.11719C578.969 2.03906 578.934 1.95703 578.926 1.87109C578.918 1.78516 578.914 1.70703 578.914 1.63672C578.914 1.53516 578.941 1.42969 578.996 1.32031C579.051 1.21875 579.125 1.12109 579.219 1.02734C579.305 0.941406 579.41 0.867188 579.535 0.804688C579.652 0.75 579.777 0.722656 579.91 0.722656H594.887ZM610.098 0.722656C610.379 0.722656 610.617 0.785156 610.812 0.910156C611.016 1.03516 611.117 1.25391 611.117 1.56641C611.117 1.75391 611.09 1.89844 611.035 2C610.988 2.10938 610.922 2.19141 610.836 2.24609C610.75 2.30859 610.645 2.34766 610.52 2.36328C610.395 2.37891 610.258 2.38672 610.109 2.38672H595.027C594.801 2.38672 594.629 2.35938 594.512 2.30469C594.387 2.25781 594.297 2.19531 594.242 2.11719C594.18 2.03906 594.145 1.95703 594.137 1.87109C594.129 1.78516 594.125 1.70703 594.125 1.63672C594.125 1.53516 594.152 1.42969 594.207 1.32031C594.262 1.21875 594.336 1.12109 594.43 1.02734C594.516 0.941406 594.621 0.867188 594.746 0.804688C594.863 0.75 594.988 0.722656 595.121 0.722656H610.098Z" fill="#B6B6B6"/>
</svg>
