<svg width="242" height="21" viewBox="0 0 242 21" fill="none" xmlns="http://www.w3.org/2000/svg">
<path d="M1.08008 12.8711C1.08008 12.7669 1.11589 12.627 1.1875 12.4512C1.25911 12.2689 1.35026 12.1061 1.46094 11.9629C1.57161 11.8197 1.69206 11.7253 1.82227 11.6797C1.95898 11.6341 2.08919 11.6927 2.21289 11.8555C2.42773 12.2461 2.62305 12.5521 2.79883 12.7734C2.98112 12.9948 3.16992 13.1608 3.36523 13.2715C3.56055 13.3757 3.77539 13.4408 4.00977 13.4668C4.25065 13.4928 4.53711 13.5059 4.86914 13.5059C5.27279 13.5059 5.6862 13.4375 6.10938 13.3008C6.53255 13.1641 6.91667 12.9915 7.26172 12.7832C7.61328 12.5749 7.89974 12.347 8.12109 12.0996C8.34245 11.8522 8.45312 11.6211 8.45312 11.4062C8.45312 11.25 8.38477 11.0938 8.24805 10.9375C8.11133 10.7812 7.92253 10.6315 7.68164 10.4883C7.44727 10.3451 7.17057 10.2116 6.85156 10.0879C6.53255 9.96419 6.19401 9.86003 5.83594 9.77539C5.42578 9.7168 5.00586 9.65169 4.57617 9.58008C4.14648 9.50195 3.72656 9.41081 3.31641 9.30664C2.90625 9.19596 2.52214 9.05924 2.16406 8.89648C1.80599 8.73372 1.49023 8.53516 1.2168 8.30078C0.943359 8.06641 0.728516 7.78971 0.572266 7.4707C0.416016 7.14518 0.337891 6.76107 0.337891 6.31836C0.337891 5.81055 0.416016 5.33854 0.572266 4.90234C0.728516 4.46615 0.940104 4.06901 1.20703 3.71094C1.48047 3.35286 1.79948 3.03711 2.16406 2.76367C2.52865 2.48372 2.91927 2.24935 3.33594 2.06055C3.75911 1.87174 4.19531 1.72852 4.64453 1.63086C5.10026 1.5332 5.55273 1.48438 6.00195 1.48438C6.4707 1.48438 6.89388 1.54948 7.27148 1.67969C7.6556 1.8099 7.98112 1.98568 8.24805 2.20703C8.51497 2.42839 8.72005 2.68229 8.86328 2.96875C9.01302 3.2487 9.08789 3.54167 9.08789 3.84766C9.08789 4.01042 9.08464 4.19596 9.07812 4.4043C9.07161 4.61263 9.04232 4.8112 8.99023 5C8.93815 5.18229 8.85677 5.33854 8.74609 5.46875C8.63542 5.59896 8.47266 5.66406 8.25781 5.66406C8.1276 5.66406 8.02669 5.63802 7.95508 5.58594C7.88346 5.53385 7.83138 5.46875 7.79883 5.39062C7.76628 5.3125 7.74674 5.22786 7.74023 5.13672C7.73372 5.04557 7.73047 4.96094 7.73047 4.88281C7.73047 4.53776 7.6849 4.25456 7.59375 4.0332C7.5026 3.81185 7.36914 3.63932 7.19336 3.51562C7.02409 3.38542 6.8125 3.29753 6.55859 3.25195C6.3112 3.19987 6.02799 3.17383 5.70898 3.17383C5.48763 3.17383 5.24674 3.21289 4.98633 3.29102C4.72591 3.36914 4.46224 3.47656 4.19531 3.61328C3.92839 3.75 3.66797 3.91276 3.41406 4.10156C3.16667 4.28385 2.94531 4.48893 2.75 4.7168C2.55469 4.93815 2.39844 5.17578 2.28125 5.42969C2.16406 5.67708 2.10547 5.93099 2.10547 6.19141C2.10547 6.4974 2.20964 6.75456 2.41797 6.96289C2.63281 7.16471 2.90951 7.33398 3.24805 7.4707C3.5931 7.60742 3.98047 7.72135 4.41016 7.8125C4.84635 7.90365 5.28906 7.98828 5.73828 8.06641C6.10286 8.13151 6.46745 8.20638 6.83203 8.29102C7.20312 8.37565 7.55469 8.47656 7.88672 8.59375C8.21875 8.71094 8.52799 8.85091 8.81445 9.01367C9.10091 9.17643 9.34831 9.37174 9.55664 9.59961C9.77148 9.82096 9.9375 10.0781 10.0547 10.3711C10.1784 10.6641 10.2402 10.9993 10.2402 11.377C10.2402 11.8392 10.1361 12.2526 9.92773 12.6172C9.72591 12.9818 9.45898 13.304 9.12695 13.584C8.79492 13.8639 8.42057 14.1048 8.00391 14.3066C7.59375 14.5085 7.18034 14.6745 6.76367 14.8047C6.34701 14.9284 5.94661 15.0195 5.5625 15.0781C5.1849 15.1367 4.86589 15.166 4.60547 15.166C4.40365 15.166 4.17578 15.1562 3.92188 15.1367C3.66797 15.1172 3.41081 15.0781 3.15039 15.0195C2.88997 14.9674 2.63607 14.8893 2.38867 14.7852C2.14128 14.681 1.91992 14.5443 1.72461 14.375C1.5293 14.2057 1.37305 13.9974 1.25586 13.75C1.13867 13.5026 1.08008 13.2096 1.08008 12.8711ZM12.9941 9.36523C12.9941 9.16341 13.0007 8.93555 13.0137 8.68164C13.0267 8.42773 13.0462 8.16406 13.0723 7.89062C13.0983 7.61719 13.1276 7.34049 13.1602 7.06055C13.1992 6.77409 13.2415 6.50065 13.2871 6.24023C13.3327 5.97331 13.3815 5.72917 13.4336 5.50781C13.4922 5.27995 13.5508 5.08464 13.6094 4.92188C13.681 4.74609 13.7949 4.60286 13.9512 4.49219C14.1074 4.375 14.3158 4.31641 14.5762 4.31641C14.8105 4.31641 14.9961 4.40104 15.1328 4.57031C15.276 4.73958 15.3477 4.94141 15.3477 5.17578C15.3477 5.21484 15.3151 5.33854 15.25 5.54688C15.1914 5.7487 15.123 6.02214 15.0449 6.36719C14.9733 6.70573 14.9049 7.10938 14.8398 7.57812C14.7812 8.04036 14.752 8.54818 14.752 9.10156C14.752 9.31641 14.7617 9.58008 14.7812 9.89258C14.8073 10.2051 14.8529 10.5339 14.918 10.8789C14.9831 11.2174 15.0742 11.5592 15.1914 11.9043C15.3086 12.2428 15.4648 12.5488 15.6602 12.8223C15.862 13.0957 16.1061 13.3171 16.3926 13.4863C16.679 13.6556 17.0208 13.7402 17.418 13.7402C17.7565 13.7402 18.069 13.6882 18.3555 13.584C18.6419 13.4798 18.9023 13.3464 19.1367 13.1836C19.3776 13.0143 19.5924 12.8255 19.7812 12.6172C19.9766 12.4089 20.1491 12.2005 20.2988 11.9922C20.4551 11.7839 20.5885 11.5885 20.6992 11.4062C20.8164 11.224 20.9173 11.071 21.002 10.9473C21.041 10.5697 21.0703 10.2376 21.0898 9.95117C21.1094 9.6582 21.1224 9.39128 21.1289 9.15039C21.1419 8.90951 21.1484 8.6849 21.1484 8.47656C21.1549 8.26172 21.1582 8.04362 21.1582 7.82227C21.1582 7.5944 21.1549 7.35352 21.1484 7.09961C21.1484 6.83919 21.1484 6.54297 21.1484 6.21094V5.04883C21.1484 4.91211 21.1777 4.79818 21.2363 4.70703C21.3014 4.61589 21.3796 4.54102 21.4707 4.48242C21.5618 4.42383 21.6628 4.38477 21.7734 4.36523C21.8841 4.33919 21.985 4.32617 22.0762 4.32617C22.1543 4.32617 22.2389 4.33919 22.3301 4.36523C22.4212 4.39128 22.5059 4.43034 22.584 4.48242C22.6621 4.53451 22.7272 4.60612 22.7793 4.69727C22.8314 4.7819 22.8574 4.88281 22.8574 5L22.8379 14.2676C22.8379 14.5996 22.7728 14.8242 22.6426 14.9414C22.5124 15.0521 22.3138 15.1074 22.0469 15.1074C21.806 15.1074 21.6172 15.0879 21.4805 15.0488C21.3503 15.0163 21.2526 14.9512 21.1875 14.8535C21.1289 14.7559 21.0931 14.6224 21.0801 14.4531C21.0671 14.2839 21.0605 14.0658 21.0605 13.7988V13.1348C20.8913 13.4408 20.6992 13.7337 20.4844 14.0137C20.276 14.2871 20.0319 14.528 19.752 14.7363C19.472 14.9447 19.1497 15.1107 18.7852 15.2344C18.4206 15.3581 18.0039 15.4199 17.5352 15.4199C16.8581 15.4199 16.2754 15.3158 15.7871 15.1074C15.3053 14.9056 14.8952 14.6387 14.5566 14.3066C14.2246 13.9681 13.9544 13.584 13.7461 13.1543C13.5443 12.7246 13.3848 12.2852 13.2676 11.8359C13.1569 11.3867 13.082 10.9473 13.043 10.5176C13.0104 10.0879 12.9941 9.70378 12.9941 9.36523ZM26.4609 14.1211C26.4609 14.0234 26.4642 13.89 26.4707 13.7207C26.4772 13.5514 26.4805 13.3301 26.4805 13.0566C26.4805 12.6139 26.4674 12.1484 26.4414 11.6602C26.4154 11.1654 26.3861 10.6543 26.3535 10.127C26.3275 9.5931 26.3014 9.04622 26.2754 8.48633C26.2559 7.91992 26.2461 7.34049 26.2461 6.74805C26.2461 6.52018 26.2559 6.26628 26.2754 5.98633C26.2949 5.69987 26.334 5.4362 26.3926 5.19531C26.4512 4.94792 26.5358 4.74284 26.6465 4.58008C26.7572 4.41081 26.9069 4.32617 27.0957 4.32617C27.2975 4.32617 27.4538 4.39128 27.5645 4.52148C27.6816 4.64518 27.7663 4.80794 27.8184 5.00977C27.877 5.20508 27.9095 5.42969 27.916 5.68359C27.929 5.93099 27.9355 6.18164 27.9355 6.43555C28.1634 6.10352 28.4531 5.80404 28.8047 5.53711C29.1562 5.26367 29.5306 5.03255 29.9277 4.84375C30.3314 4.65495 30.7383 4.50846 31.1484 4.4043C31.5586 4.30013 31.9395 4.24805 32.291 4.24805C32.929 4.24805 33.4889 4.34245 33.9707 4.53125C34.459 4.71354 34.8789 4.96419 35.2305 5.2832C35.5885 5.60221 35.8848 5.97331 36.1191 6.39648C36.36 6.81315 36.5521 7.25586 36.6953 7.72461C36.8385 8.19336 36.9395 8.67513 36.998 9.16992C37.0632 9.6582 37.0957 10.1302 37.0957 10.5859V12.2461C37.0957 12.6693 37.0664 13.0794 37.0078 13.4766C36.9557 13.8672 36.8776 14.2155 36.7734 14.5215C36.6693 14.821 36.5391 15.0618 36.3828 15.2441C36.2331 15.4329 36.0605 15.5273 35.8652 15.5273C35.722 15.5273 35.5885 15.5176 35.4648 15.498C35.3411 15.4785 35.2305 15.4297 35.1328 15.3516C35.0417 15.2799 34.9701 15.166 34.918 15.0098C34.8659 14.8535 34.8398 14.6387 34.8398 14.3652C34.8398 14.1113 34.8659 13.8477 34.918 13.5742C34.9701 13.2943 35.0254 13.0143 35.084 12.7344C35.1491 12.4544 35.2077 12.1745 35.2598 11.8945C35.3118 11.6146 35.3379 11.3379 35.3379 11.0645C35.3379 10.7585 35.3281 10.4557 35.3086 10.1562C35.2956 9.85026 35.263 9.55078 35.2109 9.25781C35.1589 8.96484 35.084 8.68164 34.9863 8.4082C34.8952 8.12826 34.7682 7.86133 34.6055 7.60742C34.4753 7.39909 34.3385 7.19727 34.1953 7.00195C34.0586 6.80013 33.8893 6.62109 33.6875 6.46484C33.4922 6.30859 33.2546 6.1849 32.9746 6.09375C32.6947 5.99609 32.3496 5.94727 31.9395 5.94727C31.6595 5.94727 31.3405 6.00586 30.9824 6.12305C30.6243 6.23372 30.263 6.39648 29.8984 6.61133C29.5404 6.81966 29.1953 7.07357 28.8633 7.37305C28.5378 7.66602 28.2643 7.99479 28.043 8.35938V10.8594C28.043 10.944 28.0462 11.0547 28.0527 11.1914C28.0658 11.3216 28.082 11.4681 28.1016 11.6309C28.1211 11.7936 28.1439 11.9661 28.1699 12.1484C28.2025 12.3307 28.235 12.5098 28.2676 12.6855C28.3197 12.959 28.3815 13.2194 28.4531 13.4668C28.5247 13.7142 28.5605 13.9453 28.5605 14.1602C28.5605 14.3099 28.554 14.4531 28.541 14.5898C28.528 14.7266 28.4922 14.847 28.4336 14.9512C28.3815 15.0488 28.2969 15.127 28.1797 15.1855C28.0625 15.2441 27.8997 15.2734 27.6914 15.2734C27.5547 15.2734 27.4147 15.2604 27.2715 15.2344C27.1283 15.2148 26.9948 15.166 26.8711 15.0879C26.7539 15.0098 26.6562 14.8958 26.5781 14.7461C26.5 14.5898 26.4609 14.3815 26.4609 14.1211ZM40.4062 14.1211C40.4062 14.0234 40.4095 13.89 40.416 13.7207C40.4225 13.5514 40.4258 13.3301 40.4258 13.0566C40.4258 12.6139 40.4128 12.1484 40.3867 11.6602C40.3607 11.1654 40.3314 10.6543 40.2988 10.127C40.2728 9.5931 40.2467 9.04622 40.2207 8.48633C40.2012 7.91992 40.1914 7.34049 40.1914 6.74805C40.1914 6.52018 40.2012 6.26628 40.2207 5.98633C40.2402 5.69987 40.2793 5.4362 40.3379 5.19531C40.3965 4.94792 40.4811 4.74284 40.5918 4.58008C40.7025 4.41081 40.8522 4.32617 41.041 4.32617C41.2428 4.32617 41.3991 4.39128 41.5098 4.52148C41.627 4.64518 41.7116 4.80794 41.7637 5.00977C41.8223 5.20508 41.8548 5.42969 41.8613 5.68359C41.8743 5.93099 41.8809 6.18164 41.8809 6.43555C42.1087 6.10352 42.3984 5.80404 42.75 5.53711C43.1016 5.26367 43.4759 5.03255 43.873 4.84375C44.2767 4.65495 44.6836 4.50846 45.0938 4.4043C45.5039 4.30013 45.8848 4.24805 46.2363 4.24805C46.8743 4.24805 47.4342 4.34245 47.916 4.53125C48.4043 4.71354 48.8242 4.96419 49.1758 5.2832C49.5339 5.60221 49.8301 5.97331 50.0645 6.39648C50.3053 6.81315 50.4974 7.25586 50.6406 7.72461C50.7839 8.19336 50.8848 8.67513 50.9434 9.16992C51.0085 9.6582 51.041 10.1302 51.041 10.5859V12.2461C51.041 12.6693 51.0117 13.0794 50.9531 13.4766C50.901 13.8672 50.8229 14.2155 50.7188 14.5215C50.6146 14.821 50.4844 15.0618 50.3281 15.2441C50.1784 15.4329 50.0059 15.5273 49.8105 15.5273C49.6673 15.5273 49.5339 15.5176 49.4102 15.498C49.2865 15.4785 49.1758 15.4297 49.0781 15.3516C48.987 15.2799 48.9154 15.166 48.8633 15.0098C48.8112 14.8535 48.7852 14.6387 48.7852 14.3652C48.7852 14.1113 48.8112 13.8477 48.8633 13.5742C48.9154 13.2943 48.9707 13.0143 49.0293 12.7344C49.0944 12.4544 49.153 12.1745 49.2051 11.8945C49.2572 11.6146 49.2832 11.3379 49.2832 11.0645C49.2832 10.7585 49.2734 10.4557 49.2539 10.1562C49.2409 9.85026 49.2083 9.55078 49.1562 9.25781C49.1042 8.96484 49.0293 8.68164 48.9316 8.4082C48.8405 8.12826 48.7135 7.86133 48.5508 7.60742C48.4206 7.39909 48.2839 7.19727 48.1406 7.00195C48.0039 6.80013 47.8346 6.62109 47.6328 6.46484C47.4375 6.30859 47.1999 6.1849 46.9199 6.09375C46.64 5.99609 46.2949 5.94727 45.8848 5.94727C45.6048 5.94727 45.2858 6.00586 44.9277 6.12305C44.5697 6.23372 44.2083 6.39648 43.8438 6.61133C43.4857 6.81966 43.1406 7.07357 42.8086 7.37305C42.4831 7.66602 42.2096 7.99479 41.9883 8.35938V10.8594C41.9883 10.944 41.9915 11.0547 41.998 11.1914C42.0111 11.3216 42.0273 11.4681 42.0469 11.6309C42.0664 11.7936 42.0892 11.9661 42.1152 12.1484C42.1478 12.3307 42.1803 12.5098 42.2129 12.6855C42.265 12.959 42.3268 13.2194 42.3984 13.4668C42.4701 13.7142 42.5059 13.9453 42.5059 14.1602C42.5059 14.3099 42.4993 14.4531 42.4863 14.5898C42.4733 14.7266 42.4375 14.847 42.3789 14.9512C42.3268 15.0488 42.2422 15.127 42.125 15.1855C42.0078 15.2441 41.8451 15.2734 41.6367 15.2734C41.5 15.2734 41.36 15.2604 41.2168 15.2344C41.0736 15.2148 40.9401 15.166 40.8164 15.0879C40.6992 15.0098 40.6016 14.8958 40.5234 14.7461C40.4453 14.5898 40.4062 14.3815 40.4062 14.1211ZM57.1152 13.8281C56.946 13.5286 56.7539 13.1738 56.5391 12.7637C56.3242 12.347 56.0996 11.9108 55.8652 11.4551C55.6374 10.9928 55.4062 10.5273 55.1719 10.0586C54.944 9.58333 54.7259 9.13411 54.5176 8.71094C54.3158 8.28125 54.1302 7.89388 53.9609 7.54883C53.7982 7.20378 53.668 6.92708 53.5703 6.71875C53.4596 6.49089 53.3815 6.29883 53.3359 6.14258C53.2904 5.98633 53.2676 5.86263 53.2676 5.77148C53.2676 5.61523 53.2969 5.47201 53.3555 5.3418C53.4141 5.21159 53.4922 5.10091 53.5898 5.00977C53.694 4.91211 53.8112 4.83724 53.9414 4.78516C54.0716 4.73307 54.2083 4.70703 54.3516 4.70703C54.4883 4.70703 54.5957 4.72982 54.6738 4.77539C54.752 4.82096 54.8171 4.88281 54.8691 4.96094C54.9277 5.03906 54.9733 5.13021 55.0059 5.23438C55.0449 5.33203 55.0905 5.43945 55.1426 5.55664C55.2923 5.9082 55.4551 6.28581 55.6309 6.68945C55.8132 7.0931 55.9987 7.50326 56.1875 7.91992C56.3828 8.33008 56.5749 8.74023 56.7637 9.15039C56.959 9.55404 57.1413 9.9349 57.3105 10.293C57.4863 10.651 57.6458 10.9798 57.7891 11.2793C57.9388 11.5723 58.0625 11.8132 58.1602 12.002L62.0566 5.25391C62.2585 4.92188 62.5156 4.66146 62.8281 4.47266C63.1406 4.28385 63.4629 4.18945 63.7949 4.18945C63.8796 4.18945 63.9577 4.21224 64.0293 4.25781C64.1009 4.29688 64.1628 4.35221 64.2148 4.42383C64.2669 4.48893 64.306 4.56055 64.332 4.63867C64.3581 4.7168 64.3711 4.78841 64.3711 4.85352C64.3711 4.95768 64.3548 5.04883 64.3223 5.12695C64.2962 5.20508 64.2409 5.30599 64.1562 5.42969C64.0716 5.55339 63.9544 5.71615 63.8047 5.91797C63.6549 6.11328 63.4596 6.38672 63.2188 6.73828C62.9844 7.08333 62.6947 7.52279 62.3496 8.05664C62.0111 8.58398 61.6107 9.23828 61.1484 10.0195L58.707 14.4824C58.4922 14.8535 58.2741 15.2604 58.0527 15.7031C57.8314 16.1523 57.6296 16.5885 57.4473 17.0117C57.2715 17.4414 57.125 17.8385 57.0078 18.2031C56.8971 18.5677 56.8418 18.8509 56.8418 19.0527C56.8418 19.1764 56.819 19.3034 56.7734 19.4336C56.7344 19.5703 56.6758 19.694 56.5977 19.8047C56.5195 19.9154 56.4251 20.0065 56.3145 20.0781C56.2103 20.1497 56.0931 20.1855 55.9629 20.1855C55.8522 20.1855 55.722 20.153 55.5723 20.0879C55.4225 20.0228 55.2793 19.9382 55.1426 19.834C55.0059 19.7363 54.8887 19.6257 54.791 19.502C54.6934 19.3783 54.6445 19.2578 54.6445 19.1406C54.6445 18.9779 54.6771 18.7695 54.7422 18.5156C54.8138 18.2617 54.9082 17.985 55.0254 17.6855C55.1426 17.3861 55.2793 17.0768 55.4355 16.7578C55.5983 16.4388 55.7708 16.1328 55.9531 15.8398L57.1152 13.8281ZM72.8574 10.1465C72.8574 9.65169 72.916 9.16341 73.0332 8.68164C73.1569 8.19336 73.3359 7.73112 73.5703 7.29492C73.8047 6.85872 74.0944 6.45508 74.4395 6.08398C74.7845 5.71289 75.1849 5.39388 75.6406 5.12695C76.0964 4.85352 76.6009 4.64518 77.1543 4.50195C77.7142 4.35221 78.3229 4.2806 78.9805 4.28711C79.2799 4.29362 79.5794 4.3457 79.8789 4.44336C80.1849 4.53451 80.4714 4.65495 80.7383 4.80469C81.0117 4.94792 81.2624 5.11068 81.4902 5.29297C81.7246 5.46875 81.9199 5.64453 82.0762 5.82031C82.0827 5.78776 82.0859 5.74219 82.0859 5.68359C82.0924 5.61849 82.0957 5.55664 82.0957 5.49805C82.1022 5.43294 82.1055 5.37435 82.1055 5.32227C82.112 5.26367 82.1152 5.22461 82.1152 5.20508V1.57227C82.1152 0.914714 82.4505 0.585938 83.1211 0.585938C83.2643 0.585938 83.3815 0.615234 83.4727 0.673828C83.5703 0.732422 83.6452 0.810547 83.6973 0.908203C83.7559 0.999349 83.7949 1.10677 83.8145 1.23047C83.8405 1.34766 83.8535 1.4681 83.8535 1.5918C83.8535 1.64388 83.8503 1.73503 83.8438 1.86523C83.8438 1.99544 83.8438 2.13542 83.8438 2.28516C83.8438 2.42839 83.8405 2.56836 83.834 2.70508C83.834 2.8418 83.834 2.94922 83.834 3.02734C83.847 3.32031 83.86 3.71745 83.873 4.21875C83.8926 4.71354 83.9023 5.32227 83.9023 6.04492C83.9023 6.63737 83.8926 7.2526 83.873 7.89062C83.8535 8.52865 83.8372 9.17318 83.8242 9.82422C83.7982 10.4948 83.7786 11.1589 83.7656 11.8164C83.7591 12.474 83.7559 13.1152 83.7559 13.7402C83.7559 14.235 83.681 14.5996 83.5312 14.834C83.3815 15.0684 83.1178 15.1855 82.7402 15.1855C82.6165 15.1855 82.5026 15.153 82.3984 15.0879C82.2943 15.0228 82.2031 14.9382 82.125 14.834C82.0469 14.7233 81.9785 14.5996 81.9199 14.4629C81.8613 14.3197 81.819 14.1699 81.793 14.0137C81.6237 14.222 81.3926 14.401 81.0996 14.5508C80.8132 14.694 80.4909 14.8112 80.1328 14.9023C79.7812 14.9935 79.4069 15.0586 79.0098 15.0977C78.6126 15.1432 78.2188 15.166 77.8281 15.166C76.9948 15.166 76.2656 15.0423 75.6406 14.7949C75.0221 14.5475 74.5046 14.2025 74.0879 13.7598C73.6777 13.3171 73.3685 12.7897 73.1602 12.1777C72.9583 11.5592 72.8574 10.8822 72.8574 10.1465ZM74.7031 10.166C74.7031 10.6934 74.7943 11.1686 74.9766 11.5918C75.1589 12.015 75.4062 12.3763 75.7188 12.6758C76.0312 12.9688 76.3926 13.1966 76.8027 13.3594C77.2194 13.5156 77.6589 13.5938 78.1211 13.5938C78.7526 13.5938 79.2962 13.5319 79.752 13.4082C80.2142 13.2845 80.5951 13.1348 80.8945 12.959C81.194 12.7767 81.4219 12.5879 81.5781 12.3926C81.7409 12.1908 81.8418 12.015 81.8809 11.8652C81.9199 11.6569 81.9492 11.4551 81.9688 11.2598C81.9883 11.0579 82.0013 10.8561 82.0078 10.6543C82.0143 10.446 82.0176 10.2311 82.0176 10.0098C82.0176 9.7819 82.0176 9.53451 82.0176 9.26758C82.0176 8.83138 81.9297 8.41471 81.7539 8.01758C81.5846 7.61393 81.3568 7.25911 81.0703 6.95312C80.7839 6.64714 80.4583 6.40299 80.0938 6.2207C79.7292 6.03841 79.3516 5.94727 78.9609 5.94727C78.2773 5.94727 77.6686 6.05469 77.1348 6.26953C76.6074 6.47786 76.1615 6.77083 75.7969 7.14844C75.4388 7.52604 75.1654 7.97201 74.9766 8.48633C74.7943 9.00065 74.7031 9.56055 74.7031 10.166ZM86.9785 10.8398C86.9785 10.332 87.0501 9.80469 87.1934 9.25781C87.3431 8.70443 87.5547 8.1901 87.8281 7.71484C88.0885 7.23958 88.4076 6.79362 88.7852 6.37695C89.1693 5.96029 89.5957 5.59896 90.0645 5.29297C90.5332 4.98047 91.0378 4.73633 91.5781 4.56055C92.125 4.37826 92.6947 4.28711 93.2871 4.28711C93.7363 4.28711 94.1693 4.34896 94.5859 4.47266C95.0026 4.58984 95.3932 4.7526 95.7578 4.96094C96.1224 5.16927 96.4544 5.41667 96.7539 5.70312C97.0599 5.98958 97.3203 6.29883 97.5352 6.63086C97.75 6.95638 97.916 7.29818 98.0332 7.65625C98.1504 8.01432 98.209 8.3724 98.209 8.73047C98.209 9.04948 98.1895 9.33268 98.1504 9.58008C98.1178 9.82096 98.0755 10.0618 98.0234 10.3027C97.9844 10.5501 97.9453 10.8073 97.9062 11.0742C97.8672 11.3346 97.8477 11.6406 97.8477 11.9922C97.8477 12.2982 97.8704 12.5521 97.916 12.7539C97.9616 12.9492 98.0267 13.1087 98.1113 13.2324C98.196 13.3561 98.2969 13.444 98.4141 13.4961C98.5378 13.5417 98.6745 13.5645 98.8242 13.5645C98.8633 13.5645 98.9121 13.5547 98.9707 13.5352C99.0293 13.5091 99.0846 13.4831 99.1367 13.457C99.1888 13.4245 99.2344 13.3952 99.2734 13.3691C99.3125 13.3366 99.3385 13.3105 99.3516 13.291C99.4232 13.2194 99.4915 13.1576 99.5566 13.1055C99.6283 13.0469 99.7227 13.0176 99.8398 13.0176C100.074 13.0176 100.25 13.0729 100.367 13.1836C100.491 13.2943 100.553 13.4766 100.553 13.7305C100.553 13.8867 100.504 14.0495 100.406 14.2188C100.315 14.388 100.185 14.5443 100.016 14.6875C99.8464 14.8242 99.6445 14.9382 99.4102 15.0293C99.1758 15.1204 98.9154 15.166 98.6289 15.166C98.056 15.166 97.5645 15.0065 97.1543 14.6875C96.7507 14.362 96.4609 13.9193 96.2852 13.3594C96.0443 13.6133 95.7806 13.8574 95.4941 14.0918C95.2077 14.3197 94.8919 14.5215 94.5469 14.6973C94.2018 14.8665 93.8177 15 93.3945 15.0977C92.9779 15.2018 92.5156 15.2539 92.0078 15.2539C91.6237 15.2539 91.2298 15.2018 90.8262 15.0977C90.429 14.9935 90.0417 14.847 89.6641 14.6582C89.293 14.4694 88.9447 14.2415 88.6191 13.9746C88.2936 13.7012 88.0072 13.4017 87.7598 13.0762C87.5189 12.7507 87.3268 12.3991 87.1836 12.0215C87.0469 11.6439 86.9785 11.25 86.9785 10.8398ZM88.8047 10.8203C88.8047 11.224 88.9121 11.5951 89.127 11.9336C89.3483 12.2721 89.6315 12.5618 89.9766 12.8027C90.3216 13.0436 90.7057 13.2324 91.1289 13.3691C91.5586 13.4993 91.9785 13.5645 92.3887 13.5645C92.9355 13.5645 93.4368 13.4603 93.8926 13.252C94.3548 13.0436 94.7487 12.7734 95.0742 12.4414C95.4062 12.1094 95.6634 11.7383 95.8457 11.3281C96.028 10.9115 96.1191 10.5013 96.1191 10.0977C96.1191 9.86979 96.168 9.67122 96.2656 9.50195C96.3698 9.32617 96.4674 9.16016 96.5586 9.00391C96.5846 8.97135 96.5977 8.92253 96.5977 8.85742C96.6042 8.78581 96.6042 8.71419 96.5977 8.64258C96.5977 8.56445 96.5944 8.49284 96.5879 8.42773C96.5814 8.36263 96.5781 8.31706 96.5781 8.29102C96.5781 8.14779 96.5293 7.99154 96.4316 7.82227C96.334 7.65299 96.2005 7.48372 96.0312 7.31445C95.8685 7.14518 95.6797 6.98242 95.4648 6.82617C95.2565 6.66341 95.0417 6.52018 94.8203 6.39648C94.599 6.27279 94.3776 6.17513 94.1562 6.10352C93.9349 6.02539 93.7363 5.98633 93.5605 5.98633C93.0658 5.98633 92.6035 6.05469 92.1738 6.19141C91.7507 6.32812 91.3633 6.51367 91.0117 6.74805C90.6602 6.98242 90.3444 7.25911 90.0645 7.57812C89.791 7.89062 89.5599 8.22591 89.3711 8.58398C89.1888 8.94206 89.0488 9.31315 88.9512 9.69727C88.8535 10.0814 88.8047 10.4557 88.8047 10.8203ZM105.299 13.8281C105.13 13.5286 104.938 13.1738 104.723 12.7637C104.508 12.347 104.283 11.9108 104.049 11.4551C103.821 10.9928 103.59 10.5273 103.355 10.0586C103.128 9.58333 102.91 9.13411 102.701 8.71094C102.499 8.28125 102.314 7.89388 102.145 7.54883C101.982 7.20378 101.852 6.92708 101.754 6.71875C101.643 6.49089 101.565 6.29883 101.52 6.14258C101.474 5.98633 101.451 5.86263 101.451 5.77148C101.451 5.61523 101.48 5.47201 101.539 5.3418C101.598 5.21159 101.676 5.10091 101.773 5.00977C101.878 4.91211 101.995 4.83724 102.125 4.78516C102.255 4.73307 102.392 4.70703 102.535 4.70703C102.672 4.70703 102.779 4.72982 102.857 4.77539C102.936 4.82096 103.001 4.88281 103.053 4.96094C103.111 5.03906 103.157 5.13021 103.189 5.23438C103.229 5.33203 103.274 5.43945 103.326 5.55664C103.476 5.9082 103.639 6.28581 103.814 6.68945C103.997 7.0931 104.182 7.50326 104.371 7.91992C104.566 8.33008 104.758 8.74023 104.947 9.15039C105.143 9.55404 105.325 9.9349 105.494 10.293C105.67 10.651 105.829 10.9798 105.973 11.2793C106.122 11.5723 106.246 11.8132 106.344 12.002L110.24 5.25391C110.442 4.92188 110.699 4.66146 111.012 4.47266C111.324 4.28385 111.646 4.18945 111.979 4.18945C112.063 4.18945 112.141 4.21224 112.213 4.25781C112.285 4.29688 112.346 4.35221 112.398 4.42383C112.451 4.48893 112.49 4.56055 112.516 4.63867C112.542 4.7168 112.555 4.78841 112.555 4.85352C112.555 4.95768 112.538 5.04883 112.506 5.12695C112.48 5.20508 112.424 5.30599 112.34 5.42969C112.255 5.55339 112.138 5.71615 111.988 5.91797C111.839 6.11328 111.643 6.38672 111.402 6.73828C111.168 7.08333 110.878 7.52279 110.533 8.05664C110.195 8.58398 109.794 9.23828 109.332 10.0195L106.891 14.4824C106.676 14.8535 106.458 15.2604 106.236 15.7031C106.015 16.1523 105.813 16.5885 105.631 17.0117C105.455 17.4414 105.309 17.8385 105.191 18.2031C105.081 18.5677 105.025 18.8509 105.025 19.0527C105.025 19.1764 105.003 19.3034 104.957 19.4336C104.918 19.5703 104.859 19.694 104.781 19.8047C104.703 19.9154 104.609 20.0065 104.498 20.0781C104.394 20.1497 104.277 20.1855 104.146 20.1855C104.036 20.1855 103.906 20.153 103.756 20.0879C103.606 20.0228 103.463 19.9382 103.326 19.834C103.189 19.7363 103.072 19.6257 102.975 19.502C102.877 19.3783 102.828 19.2578 102.828 19.1406C102.828 18.9779 102.861 18.7695 102.926 18.5156C102.997 18.2617 103.092 17.985 103.209 17.6855C103.326 17.3861 103.463 17.0768 103.619 16.7578C103.782 16.4388 103.954 16.1328 104.137 15.8398L105.299 13.8281ZM121.041 10.8398C121.041 10.332 121.113 9.80469 121.256 9.25781C121.406 8.70443 121.617 8.1901 121.891 7.71484C122.151 7.23958 122.47 6.79362 122.848 6.37695C123.232 5.96029 123.658 5.59896 124.127 5.29297C124.596 4.98047 125.1 4.73633 125.641 4.56055C126.188 4.37826 126.757 4.28711 127.35 4.28711C127.799 4.28711 128.232 4.34896 128.648 4.47266C129.065 4.58984 129.456 4.7526 129.82 4.96094C130.185 5.16927 130.517 5.41667 130.816 5.70312C131.122 5.98958 131.383 6.29883 131.598 6.63086C131.812 6.95638 131.979 7.29818 132.096 7.65625C132.213 8.01432 132.271 8.3724 132.271 8.73047C132.271 9.04948 132.252 9.33268 132.213 9.58008C132.18 9.82096 132.138 10.0618 132.086 10.3027C132.047 10.5501 132.008 10.8073 131.969 11.0742C131.93 11.3346 131.91 11.6406 131.91 11.9922C131.91 12.2982 131.933 12.5521 131.979 12.7539C132.024 12.9492 132.089 13.1087 132.174 13.2324C132.258 13.3561 132.359 13.444 132.477 13.4961C132.6 13.5417 132.737 13.5645 132.887 13.5645C132.926 13.5645 132.975 13.5547 133.033 13.5352C133.092 13.5091 133.147 13.4831 133.199 13.457C133.251 13.4245 133.297 13.3952 133.336 13.3691C133.375 13.3366 133.401 13.3105 133.414 13.291C133.486 13.2194 133.554 13.1576 133.619 13.1055C133.691 13.0469 133.785 13.0176 133.902 13.0176C134.137 13.0176 134.312 13.0729 134.43 13.1836C134.553 13.2943 134.615 13.4766 134.615 13.7305C134.615 13.8867 134.566 14.0495 134.469 14.2188C134.378 14.388 134.247 14.5443 134.078 14.6875C133.909 14.8242 133.707 14.9382 133.473 15.0293C133.238 15.1204 132.978 15.166 132.691 15.166C132.118 15.166 131.627 15.0065 131.217 14.6875C130.813 14.362 130.523 13.9193 130.348 13.3594C130.107 13.6133 129.843 13.8574 129.557 14.0918C129.27 14.3197 128.954 14.5215 128.609 14.6973C128.264 14.8665 127.88 15 127.457 15.0977C127.04 15.2018 126.578 15.2539 126.07 15.2539C125.686 15.2539 125.292 15.2018 124.889 15.0977C124.492 14.9935 124.104 14.847 123.727 14.6582C123.355 14.4694 123.007 14.2415 122.682 13.9746C122.356 13.7012 122.07 13.4017 121.822 13.0762C121.581 12.7507 121.389 12.3991 121.246 12.0215C121.109 11.6439 121.041 11.25 121.041 10.8398ZM122.867 10.8203C122.867 11.224 122.975 11.5951 123.189 11.9336C123.411 12.2721 123.694 12.5618 124.039 12.8027C124.384 13.0436 124.768 13.2324 125.191 13.3691C125.621 13.4993 126.041 13.5645 126.451 13.5645C126.998 13.5645 127.499 13.4603 127.955 13.252C128.417 13.0436 128.811 12.7734 129.137 12.4414C129.469 12.1094 129.726 11.7383 129.908 11.3281C130.09 10.9115 130.182 10.5013 130.182 10.0977C130.182 9.86979 130.23 9.67122 130.328 9.50195C130.432 9.32617 130.53 9.16016 130.621 9.00391C130.647 8.97135 130.66 8.92253 130.66 8.85742C130.667 8.78581 130.667 8.71419 130.66 8.64258C130.66 8.56445 130.657 8.49284 130.65 8.42773C130.644 8.36263 130.641 8.31706 130.641 8.29102C130.641 8.14779 130.592 7.99154 130.494 7.82227C130.396 7.65299 130.263 7.48372 130.094 7.31445C129.931 7.14518 129.742 6.98242 129.527 6.82617C129.319 6.66341 129.104 6.52018 128.883 6.39648C128.661 6.27279 128.44 6.17513 128.219 6.10352C127.997 6.02539 127.799 5.98633 127.623 5.98633C127.128 5.98633 126.666 6.05469 126.236 6.19141C125.813 6.32812 125.426 6.51367 125.074 6.74805C124.723 6.98242 124.407 7.25911 124.127 7.57812C123.854 7.89062 123.622 8.22591 123.434 8.58398C123.251 8.94206 123.111 9.31315 123.014 9.69727C122.916 10.0814 122.867 10.4557 122.867 10.8203ZM141.773 15.1465C141.129 15.1465 140.595 15.0195 140.172 14.7656C139.749 14.5052 139.407 14.1602 139.146 13.7305C138.886 13.2943 138.691 12.7995 138.561 12.2461C138.43 11.6862 138.339 11.1068 138.287 10.5078C138.235 9.90234 138.206 9.30013 138.199 8.70117C138.193 8.10221 138.183 7.54883 138.17 7.04102C137.994 7.04102 137.835 7.04102 137.691 7.04102C137.555 7.04102 137.418 7.04427 137.281 7.05078C137.203 7.05729 137.132 7.0638 137.066 7.07031C137.001 7.07031 136.93 7.07357 136.852 7.08008C136.78 7.08008 136.695 7.08333 136.598 7.08984C136.507 7.08984 136.393 7.08984 136.256 7.08984C136.178 7.08984 136.074 7.07031 135.943 7.03125C135.813 6.99219 135.683 6.93685 135.553 6.86523C135.423 6.79362 135.309 6.70573 135.211 6.60156C135.12 6.49089 135.074 6.36719 135.074 6.23047C135.074 6.09375 135.104 5.9668 135.162 5.84961C135.221 5.73242 135.299 5.63477 135.396 5.55664C135.501 5.47201 135.621 5.4069 135.758 5.36133C135.895 5.31576 136.038 5.29297 136.188 5.29297L138.238 5.3418C138.258 5.17904 138.277 5.01628 138.297 4.85352C138.316 4.69076 138.333 4.53125 138.346 4.375C138.365 4.1862 138.378 4.01042 138.385 3.84766C138.391 3.6849 138.401 3.52865 138.414 3.37891C138.427 3.22266 138.44 3.06966 138.453 2.91992C138.473 2.76367 138.502 2.60091 138.541 2.43164C138.561 2.32096 138.606 2.21354 138.678 2.10938C138.749 1.9987 138.831 1.90104 138.922 1.81641C139.02 1.73177 139.12 1.66341 139.225 1.61133C139.335 1.55924 139.439 1.5332 139.537 1.5332C139.615 1.5332 139.697 1.55273 139.781 1.5918C139.866 1.63086 139.944 1.68945 140.016 1.76758C140.087 1.83919 140.146 1.92708 140.191 2.03125C140.243 2.12891 140.27 2.23958 140.27 2.36328C140.27 2.6237 140.266 2.8418 140.26 3.01758C140.26 3.19336 140.253 3.3431 140.24 3.4668C140.234 3.59049 140.224 3.69792 140.211 3.78906C140.198 3.88021 140.185 3.97135 140.172 4.0625C140.159 4.13411 140.146 4.21224 140.133 4.29688C140.126 4.375 140.117 4.46615 140.104 4.57031C140.097 4.67448 140.087 4.79492 140.074 4.93164C140.061 5.06185 140.045 5.2181 140.025 5.40039C140.396 5.39388 140.748 5.38737 141.08 5.38086C141.419 5.36784 141.751 5.35807 142.076 5.35156C142.402 5.33854 142.734 5.32878 143.072 5.32227C143.411 5.31576 143.772 5.3125 144.156 5.3125C144.286 5.3125 144.4 5.34831 144.498 5.41992C144.602 5.48503 144.687 5.56641 144.752 5.66406C144.824 5.76172 144.876 5.86589 144.908 5.97656C144.947 6.08073 144.967 6.17188 144.967 6.25C144.967 6.38672 144.938 6.51042 144.879 6.62109C144.82 6.72526 144.749 6.81315 144.664 6.88477C144.579 6.95638 144.485 7.00846 144.381 7.04102C144.277 7.07357 144.182 7.08984 144.098 7.08984L140.104 7.02148C140.077 7.04753 140.064 7.07682 140.064 7.10938C140.064 7.45443 140.058 7.85156 140.045 8.30078C140.032 8.74349 140.029 9.19596 140.035 9.6582C140.048 10.1204 140.077 10.5762 140.123 11.0254C140.169 11.4681 140.25 11.8652 140.367 12.2168C140.491 12.5618 140.657 12.8418 140.865 13.0566C141.074 13.2715 141.347 13.3789 141.686 13.3789C141.796 13.3789 141.926 13.3594 142.076 13.3203C142.232 13.2747 142.385 13.2227 142.535 13.1641C142.685 13.1055 142.825 13.0404 142.955 12.9688C143.085 12.8971 143.186 12.832 143.258 12.7734C143.329 12.7083 143.424 12.6497 143.541 12.5977C143.658 12.5456 143.756 12.5195 143.834 12.5195C144.081 12.5195 144.238 12.5814 144.303 12.7051C144.374 12.8223 144.41 12.985 144.41 13.1934C144.41 13.265 144.394 13.3529 144.361 13.457C144.329 13.5547 144.286 13.6361 144.234 13.7012C144.111 13.8574 143.948 14.0234 143.746 14.1992C143.551 14.3685 143.339 14.5247 143.111 14.668C142.883 14.8047 142.652 14.9186 142.418 15.0098C142.184 15.1009 141.969 15.1465 141.773 15.1465ZM154.635 10.8398C154.635 10.332 154.706 9.80469 154.85 9.25781C154.999 8.70443 155.211 8.1901 155.484 7.71484C155.745 7.23958 156.064 6.79362 156.441 6.37695C156.826 5.96029 157.252 5.59896 157.721 5.29297C158.189 4.98047 158.694 4.73633 159.234 4.56055C159.781 4.37826 160.351 4.28711 160.943 4.28711C161.393 4.28711 161.826 4.34896 162.242 4.47266C162.659 4.58984 163.049 4.7526 163.414 4.96094C163.779 5.16927 164.111 5.41667 164.41 5.70312C164.716 5.98958 164.977 6.29883 165.191 6.63086C165.406 6.95638 165.572 7.29818 165.689 7.65625C165.807 8.01432 165.865 8.3724 165.865 8.73047C165.865 9.04948 165.846 9.33268 165.807 9.58008C165.774 9.82096 165.732 10.0618 165.68 10.3027C165.641 10.5501 165.602 10.8073 165.562 11.0742C165.523 11.3346 165.504 11.6406 165.504 11.9922C165.504 12.2982 165.527 12.5521 165.572 12.7539C165.618 12.9492 165.683 13.1087 165.768 13.2324C165.852 13.3561 165.953 13.444 166.07 13.4961C166.194 13.5417 166.331 13.5645 166.48 13.5645C166.52 13.5645 166.568 13.5547 166.627 13.5352C166.686 13.5091 166.741 13.4831 166.793 13.457C166.845 13.4245 166.891 13.3952 166.93 13.3691C166.969 13.3366 166.995 13.3105 167.008 13.291C167.079 13.2194 167.148 13.1576 167.213 13.1055C167.285 13.0469 167.379 13.0176 167.496 13.0176C167.73 13.0176 167.906 13.0729 168.023 13.1836C168.147 13.2943 168.209 13.4766 168.209 13.7305C168.209 13.8867 168.16 14.0495 168.062 14.2188C167.971 14.388 167.841 14.5443 167.672 14.6875C167.503 14.8242 167.301 14.9382 167.066 15.0293C166.832 15.1204 166.572 15.166 166.285 15.166C165.712 15.166 165.221 15.0065 164.811 14.6875C164.407 14.362 164.117 13.9193 163.941 13.3594C163.701 13.6133 163.437 13.8574 163.15 14.0918C162.864 14.3197 162.548 14.5215 162.203 14.6973C161.858 14.8665 161.474 15 161.051 15.0977C160.634 15.2018 160.172 15.2539 159.664 15.2539C159.28 15.2539 158.886 15.2018 158.482 15.0977C158.085 14.9935 157.698 14.847 157.32 14.6582C156.949 14.4694 156.601 14.2415 156.275 13.9746C155.95 13.7012 155.663 13.4017 155.416 13.0762C155.175 12.7507 154.983 12.3991 154.84 12.0215C154.703 11.6439 154.635 11.25 154.635 10.8398ZM156.461 10.8203C156.461 11.224 156.568 11.5951 156.783 11.9336C157.005 12.2721 157.288 12.5618 157.633 12.8027C157.978 13.0436 158.362 13.2324 158.785 13.3691C159.215 13.4993 159.635 13.5645 160.045 13.5645C160.592 13.5645 161.093 13.4603 161.549 13.252C162.011 13.0436 162.405 12.7734 162.73 12.4414C163.062 12.1094 163.32 11.7383 163.502 11.3281C163.684 10.9115 163.775 10.5013 163.775 10.0977C163.775 9.86979 163.824 9.67122 163.922 9.50195C164.026 9.32617 164.124 9.16016 164.215 9.00391C164.241 8.97135 164.254 8.92253 164.254 8.85742C164.26 8.78581 164.26 8.71419 164.254 8.64258C164.254 8.56445 164.251 8.49284 164.244 8.42773C164.238 8.36263 164.234 8.31706 164.234 8.29102C164.234 8.14779 164.186 7.99154 164.088 7.82227C163.99 7.65299 163.857 7.48372 163.688 7.31445C163.525 7.14518 163.336 6.98242 163.121 6.82617C162.913 6.66341 162.698 6.52018 162.477 6.39648C162.255 6.27279 162.034 6.17513 161.812 6.10352C161.591 6.02539 161.393 5.98633 161.217 5.98633C160.722 5.98633 160.26 6.05469 159.83 6.19141C159.407 6.32812 159.02 6.51367 158.668 6.74805C158.316 6.98242 158.001 7.25911 157.721 7.57812C157.447 7.89062 157.216 8.22591 157.027 8.58398C156.845 8.94206 156.705 9.31315 156.607 9.69727C156.51 10.0814 156.461 10.4557 156.461 10.8203ZM177.398 13.9062C177.385 13.6784 177.376 13.3366 177.369 12.8809C177.363 12.4186 177.359 11.8945 177.359 11.3086C177.359 10.7161 177.363 10.0846 177.369 9.41406C177.376 8.73698 177.379 8.06966 177.379 7.41211C177.379 6.75456 177.379 6.13281 177.379 5.54688C177.379 4.95443 177.376 4.44661 177.369 4.02344L177.34 2.41211C177.34 2.35352 177.34 2.27539 177.34 2.17773C177.346 2.07357 177.35 1.9694 177.35 1.86523C177.35 1.76107 177.35 1.66667 177.35 1.58203C177.356 1.4974 177.359 1.44206 177.359 1.41602C177.359 1.14909 177.421 0.940755 177.545 0.791016C177.675 0.641276 177.919 0.566406 178.277 0.566406C178.362 0.566406 178.456 0.582682 178.561 0.615234C178.665 0.641276 178.762 0.680339 178.854 0.732422C178.945 0.784505 179.02 0.849609 179.078 0.927734C179.143 0.999349 179.176 1.08073 179.176 1.17188L179.195 2.09961C179.202 2.42513 179.202 2.73438 179.195 3.02734C179.189 3.3138 179.179 3.60026 179.166 3.88672C179.16 4.16667 179.15 4.45312 179.137 4.74609C179.13 5.03255 179.127 5.33529 179.127 5.6543C179.518 5.32227 179.973 5.05208 180.494 4.84375C181.015 4.62891 181.611 4.52148 182.281 4.52148C183.948 4.52148 185.211 4.94141 186.07 5.78125C186.936 6.62109 187.369 7.92318 187.369 9.6875C187.369 10.3776 187.268 10.9928 187.066 11.5332C186.871 12.0671 186.607 12.5358 186.275 12.9395C185.95 13.3431 185.576 13.6882 185.152 13.9746C184.729 14.2546 184.29 14.4824 183.834 14.6582C183.385 14.8275 182.936 14.9512 182.486 15.0293C182.044 15.1074 181.637 15.1465 181.266 15.1465C180.927 15.1465 180.582 15.1139 180.23 15.0488C179.879 14.9837 179.547 14.8958 179.234 14.7852C179.15 14.9023 179.033 14.9967 178.883 15.0684C178.74 15.14 178.57 15.1758 178.375 15.1758C178.199 15.1758 178.053 15.1367 177.936 15.0586C177.818 14.987 177.721 14.8926 177.643 14.7754C177.564 14.6517 177.506 14.515 177.467 14.3652C177.428 14.2155 177.405 14.0625 177.398 13.9062ZM179.371 13.2324C179.469 13.2845 179.592 13.3268 179.742 13.3594C179.892 13.3919 180.051 13.418 180.221 13.4375C180.39 13.457 180.562 13.4701 180.738 13.4766C180.921 13.4831 181.09 13.4831 181.246 13.4766C181.585 13.4635 181.936 13.4147 182.301 13.3301C182.665 13.2454 183.014 13.125 183.346 12.9688C183.684 12.8125 183.997 12.6204 184.283 12.3926C184.57 12.1582 184.804 11.888 184.986 11.582C185.11 11.3997 185.204 11.1947 185.27 10.9668C185.341 10.7389 185.393 10.5013 185.426 10.2539C185.458 10.0065 185.478 9.75911 185.484 9.51172C185.491 9.25781 185.494 9.01693 185.494 8.78906C185.475 8.3138 185.348 7.91341 185.113 7.58789C184.885 7.26237 184.599 6.9987 184.254 6.79688C183.915 6.59505 183.541 6.45182 183.131 6.36719C182.727 6.27604 182.343 6.23047 181.979 6.23047C181.744 6.23047 181.49 6.26302 181.217 6.32812C180.95 6.39323 180.689 6.48438 180.436 6.60156C180.182 6.71224 179.947 6.8457 179.732 7.00195C179.524 7.1582 179.361 7.32747 179.244 7.50977C179.218 7.52279 179.199 7.62695 179.186 7.82227C179.179 8.01758 179.176 8.26172 179.176 8.55469C179.176 8.84115 179.176 9.1569 179.176 9.50195C179.182 9.84701 179.189 10.1823 179.195 10.5078C179.202 10.8333 179.205 11.1263 179.205 11.3867C179.212 11.6471 179.215 11.8327 179.215 11.9434C179.215 12.1452 179.225 12.3665 179.244 12.6074C179.27 12.8418 179.312 13.0501 179.371 13.2324ZM189.713 10.3613C189.713 9.43685 189.846 8.60026 190.113 7.85156C190.38 7.10286 190.774 6.46484 191.295 5.9375C191.816 5.41016 192.454 5.00326 193.209 4.7168C193.971 4.43034 194.846 4.28711 195.836 4.28711C196.174 4.28711 196.52 4.32292 196.871 4.39453C197.229 4.46615 197.574 4.57031 197.906 4.70703C198.238 4.84375 198.551 5.01302 198.844 5.21484C199.143 5.41667 199.404 5.65104 199.625 5.91797C199.846 6.17839 200.019 6.47135 200.143 6.79688C200.273 7.11589 200.338 7.46419 200.338 7.8418C200.338 8.13477 200.273 8.34635 200.143 8.47656C200.012 8.60677 199.84 8.69792 199.625 8.75C199.436 8.80208 199.215 8.85091 198.961 8.89648C198.714 8.93555 198.434 9.00391 198.121 9.10156L191.588 11.1328C191.673 11.5299 191.809 11.8685 191.998 12.1484C192.193 12.4284 192.418 12.6628 192.672 12.8516C192.932 13.0404 193.212 13.1901 193.512 13.3008C193.818 13.4115 194.124 13.4961 194.43 13.5547C194.736 13.6068 195.032 13.6426 195.318 13.6621C195.611 13.6751 195.875 13.6816 196.109 13.6816C196.48 13.6816 196.848 13.6393 197.213 13.5547C197.577 13.4701 197.913 13.3757 198.219 13.2715C198.525 13.1673 198.792 13.0729 199.02 12.9883C199.254 12.9036 199.423 12.8613 199.527 12.8613C199.872 12.8613 200.123 12.9395 200.279 13.0957C200.442 13.252 200.523 13.4961 200.523 13.8281C200.523 14.043 200.413 14.2285 200.191 14.3848C199.977 14.541 199.697 14.6712 199.352 14.7754C199.007 14.8796 198.622 14.9609 198.199 15.0195C197.783 15.0846 197.372 15.1302 196.969 15.1562C196.572 15.1888 196.207 15.2083 195.875 15.2148C195.543 15.2279 195.292 15.2344 195.123 15.2344C194.674 15.2344 194.225 15.1758 193.775 15.0586C193.333 14.9479 192.91 14.7884 192.506 14.5801C192.109 14.3717 191.738 14.1211 191.393 13.8281C191.054 13.5286 190.758 13.1999 190.504 12.8418C190.257 12.4772 190.061 12.0866 189.918 11.6699C189.781 11.2533 189.713 10.8171 189.713 10.3613ZM191.539 9.59961C191.845 9.50846 192.197 9.4043 192.594 9.28711C192.991 9.16992 193.408 9.04622 193.844 8.91602C194.286 8.7793 194.732 8.63932 195.182 8.49609C195.637 8.35286 196.074 8.21289 196.49 8.07617C196.913 7.93294 197.301 7.79948 197.652 7.67578C198.01 7.54557 198.31 7.42513 198.551 7.31445C198.479 7.06706 198.359 6.85547 198.189 6.67969C198.02 6.4974 197.805 6.35091 197.545 6.24023C197.291 6.12305 196.995 6.03841 196.656 5.98633C196.318 5.92773 195.947 5.89844 195.543 5.89844C195.361 5.89844 195.143 5.92448 194.889 5.97656C194.641 6.02865 194.378 6.11328 194.098 6.23047C193.824 6.34115 193.544 6.49089 193.258 6.67969C192.978 6.86849 192.721 7.09961 192.486 7.37305C192.252 7.64648 192.05 7.96875 191.881 8.33984C191.712 8.70443 191.598 9.12435 191.539 9.59961ZM203.014 10.8398C203.014 10.332 203.085 9.80469 203.229 9.25781C203.378 8.70443 203.59 8.1901 203.863 7.71484C204.124 7.23958 204.443 6.79362 204.82 6.37695C205.204 5.96029 205.631 5.59896 206.1 5.29297C206.568 4.98047 207.073 4.73633 207.613 4.56055C208.16 4.37826 208.73 4.28711 209.322 4.28711C209.771 4.28711 210.204 4.34896 210.621 4.47266C211.038 4.58984 211.428 4.7526 211.793 4.96094C212.158 5.16927 212.49 5.41667 212.789 5.70312C213.095 5.98958 213.355 6.29883 213.57 6.63086C213.785 6.95638 213.951 7.29818 214.068 7.65625C214.186 8.01432 214.244 8.3724 214.244 8.73047C214.244 9.04948 214.225 9.33268 214.186 9.58008C214.153 9.82096 214.111 10.0618 214.059 10.3027C214.02 10.5501 213.98 10.8073 213.941 11.0742C213.902 11.3346 213.883 11.6406 213.883 11.9922C213.883 12.2982 213.906 12.5521 213.951 12.7539C213.997 12.9492 214.062 13.1087 214.146 13.2324C214.231 13.3561 214.332 13.444 214.449 13.4961C214.573 13.5417 214.71 13.5645 214.859 13.5645C214.898 13.5645 214.947 13.5547 215.006 13.5352C215.064 13.5091 215.12 13.4831 215.172 13.457C215.224 13.4245 215.27 13.3952 215.309 13.3691C215.348 13.3366 215.374 13.3105 215.387 13.291C215.458 13.2194 215.527 13.1576 215.592 13.1055C215.663 13.0469 215.758 13.0176 215.875 13.0176C216.109 13.0176 216.285 13.0729 216.402 13.1836C216.526 13.2943 216.588 13.4766 216.588 13.7305C216.588 13.8867 216.539 14.0495 216.441 14.2188C216.35 14.388 216.22 14.5443 216.051 14.6875C215.882 14.8242 215.68 14.9382 215.445 15.0293C215.211 15.1204 214.951 15.166 214.664 15.166C214.091 15.166 213.6 15.0065 213.189 14.6875C212.786 14.362 212.496 13.9193 212.32 13.3594C212.079 13.6133 211.816 13.8574 211.529 14.0918C211.243 14.3197 210.927 14.5215 210.582 14.6973C210.237 14.8665 209.853 15 209.43 15.0977C209.013 15.2018 208.551 15.2539 208.043 15.2539C207.659 15.2539 207.265 15.2018 206.861 15.0977C206.464 14.9935 206.077 14.847 205.699 14.6582C205.328 14.4694 204.98 14.2415 204.654 13.9746C204.329 13.7012 204.042 13.4017 203.795 13.0762C203.554 12.7507 203.362 12.3991 203.219 12.0215C203.082 11.6439 203.014 11.25 203.014 10.8398ZM204.84 10.8203C204.84 11.224 204.947 11.5951 205.162 11.9336C205.383 12.2721 205.667 12.5618 206.012 12.8027C206.357 13.0436 206.741 13.2324 207.164 13.3691C207.594 13.4993 208.014 13.5645 208.424 13.5645C208.971 13.5645 209.472 13.4603 209.928 13.252C210.39 13.0436 210.784 12.7734 211.109 12.4414C211.441 12.1094 211.699 11.7383 211.881 11.3281C212.063 10.9115 212.154 10.5013 212.154 10.0977C212.154 9.86979 212.203 9.67122 212.301 9.50195C212.405 9.32617 212.503 9.16016 212.594 9.00391C212.62 8.97135 212.633 8.92253 212.633 8.85742C212.639 8.78581 212.639 8.71419 212.633 8.64258C212.633 8.56445 212.63 8.49284 212.623 8.42773C212.617 8.36263 212.613 8.31706 212.613 8.29102C212.613 8.14779 212.564 7.99154 212.467 7.82227C212.369 7.65299 212.236 7.48372 212.066 7.31445C211.904 7.14518 211.715 6.98242 211.5 6.82617C211.292 6.66341 211.077 6.52018 210.855 6.39648C210.634 6.27279 210.413 6.17513 210.191 6.10352C209.97 6.02539 209.771 5.98633 209.596 5.98633C209.101 5.98633 208.639 6.05469 208.209 6.19141C207.786 6.32812 207.398 6.51367 207.047 6.74805C206.695 6.98242 206.38 7.25911 206.1 7.57812C205.826 7.89062 205.595 8.22591 205.406 8.58398C205.224 8.94206 205.084 9.31315 204.986 9.69727C204.889 10.0814 204.84 10.4557 204.84 10.8203ZM217.955 10.8984C217.955 10 218.085 9.1569 218.346 8.36914C218.606 7.57487 218.99 6.88151 219.498 6.28906C220.006 5.6901 220.634 5.2181 221.383 4.87305C222.132 4.52799 222.991 4.35547 223.961 4.35547C224.143 4.35547 224.352 4.38802 224.586 4.45312C224.82 4.51823 225.058 4.61263 225.299 4.73633C225.54 4.86003 225.777 5.00977 226.012 5.18555C226.246 5.35482 226.454 5.54688 226.637 5.76172C226.819 5.97005 226.965 6.19792 227.076 6.44531C227.187 6.69271 227.242 6.94987 227.242 7.2168C227.242 7.29492 227.226 7.39258 227.193 7.50977C227.161 7.62695 227.115 7.73763 227.057 7.8418C227.005 7.94596 226.939 8.0306 226.861 8.0957C226.783 8.16081 226.695 8.18685 226.598 8.17383C226.507 8.1543 226.406 8.08268 226.295 7.95898C226.184 7.83529 226.07 7.63021 225.953 7.34375C225.862 7.13542 225.732 6.95638 225.562 6.80664C225.4 6.6569 225.211 6.53646 224.996 6.44531C224.781 6.34766 224.55 6.27604 224.303 6.23047C224.062 6.1849 223.821 6.16211 223.58 6.16211C222.988 6.16211 222.454 6.28255 221.979 6.52344C221.51 6.76432 221.109 7.08333 220.777 7.48047C220.445 7.87109 220.191 8.31706 220.016 8.81836C219.84 9.31966 219.752 9.82747 219.752 10.3418C219.752 10.9733 219.846 11.4909 220.035 11.8945C220.224 12.2917 220.491 12.6074 220.836 12.8418C221.188 13.0697 221.604 13.2259 222.086 13.3105C222.574 13.3952 223.115 13.4375 223.707 13.4375C223.883 13.4375 224.052 13.444 224.215 13.457C224.384 13.4635 224.547 13.4668 224.703 13.4668C224.866 13.4603 225.029 13.444 225.191 13.418C225.354 13.3919 225.523 13.3431 225.699 13.2715C225.842 13.2064 225.976 13.1445 226.1 13.0859C226.21 13.0404 226.318 12.998 226.422 12.959C226.526 12.9199 226.604 12.9004 226.656 12.9004C226.721 12.9004 226.812 12.9199 226.93 12.959C227.047 12.998 227.161 13.0632 227.271 13.1543C227.389 13.2454 227.49 13.3659 227.574 13.5156C227.659 13.6589 227.701 13.8379 227.701 14.0527C227.701 14.1634 227.662 14.2773 227.584 14.3945C227.512 14.5052 227.418 14.6094 227.301 14.707C227.19 14.7982 227.073 14.873 226.949 14.9316C226.826 14.9902 226.715 15.0195 226.617 15.0195H225.846C225.39 15.0195 224.944 15.0391 224.508 15.0781C224.078 15.1172 223.629 15.1367 223.16 15.1367C222.464 15.1367 221.799 15.0716 221.168 14.9414C220.536 14.8047 219.983 14.5736 219.508 14.248C219.033 13.9225 218.655 13.4896 218.375 12.9492C218.095 12.4023 217.955 11.7188 217.955 10.8984ZM230.699 1.80664C230.699 1.70247 230.725 1.58203 230.777 1.44531C230.829 1.30208 230.901 1.16862 230.992 1.04492C231.09 0.921224 231.204 0.817057 231.334 0.732422C231.464 0.647786 231.607 0.605469 231.764 0.605469C231.985 0.605469 232.171 0.680339 232.32 0.830078C232.477 0.979818 232.555 1.15234 232.555 1.34766C232.555 1.60156 232.548 1.875 232.535 2.16797C232.529 2.46094 232.519 2.76693 232.506 3.08594C232.499 3.39844 232.49 3.71745 232.477 4.04297C232.47 4.36849 232.467 4.6875 232.467 5V5.73242C232.883 5.30273 233.365 4.97721 233.912 4.75586C234.465 4.52799 235.051 4.41406 235.67 4.41406C235.924 4.41406 236.184 4.43034 236.451 4.46289C236.718 4.48893 236.985 4.53125 237.252 4.58984C237.519 4.64844 237.776 4.72331 238.023 4.81445C238.277 4.89909 238.515 5.00326 238.736 5.12695C239.329 5.46549 239.798 5.81055 240.143 6.16211C240.488 6.50716 240.748 6.875 240.924 7.26562C241.1 7.64974 241.21 8.06315 241.256 8.50586C241.301 8.94857 241.321 9.43685 241.314 9.9707L241.295 13.6035C241.295 13.7402 241.288 13.9095 241.275 14.1113C241.269 14.3066 241.233 14.4987 241.168 14.6875C241.103 14.8763 241.002 15.0358 240.865 15.166C240.729 15.3027 240.533 15.3711 240.279 15.3711C240.123 15.3711 239.98 15.3418 239.85 15.2832C239.719 15.2246 239.605 15.1432 239.508 15.0391C239.417 14.9414 239.345 14.8275 239.293 14.6973C239.247 14.5605 239.225 14.4141 239.225 14.2578C239.225 13.9062 239.238 13.5612 239.264 13.2227C239.296 12.8776 239.329 12.5358 239.361 12.1973C239.394 11.8587 239.423 11.5202 239.449 11.1816C239.482 10.8366 239.498 10.4915 239.498 10.1465C239.498 9.89909 239.488 9.62891 239.469 9.33594C239.449 9.04297 239.397 8.75 239.312 8.45703C239.234 8.15755 239.114 7.87109 238.951 7.59766C238.788 7.31771 238.564 7.07031 238.277 6.85547C237.997 6.64062 237.643 6.47135 237.213 6.34766C236.79 6.21745 236.275 6.15234 235.67 6.15234C235.253 6.15234 234.85 6.22721 234.459 6.37695C234.075 6.52018 233.733 6.70247 233.434 6.92383C233.141 7.14518 232.906 7.38607 232.73 7.64648C232.555 7.9069 232.467 8.1543 232.467 8.38867V12.5C232.467 12.7018 232.48 12.9329 232.506 13.1934C232.538 13.4473 232.555 13.6849 232.555 13.9062C232.555 14.0365 232.548 14.1699 232.535 14.3066C232.529 14.4368 232.499 14.5573 232.447 14.668C232.402 14.7721 232.324 14.86 232.213 14.9316C232.109 15.0033 231.959 15.0391 231.764 15.0391C231.679 15.0391 231.575 15.0293 231.451 15.0098C231.327 14.9967 231.207 14.9577 231.09 14.8926C230.979 14.821 230.882 14.7168 230.797 14.5801C230.719 14.4368 230.68 14.2415 230.68 13.9941L230.699 1.80664Z" fill="black"/>
</svg>
